<svg class="railroad-diagram" width="2012" height="2539" viewBox="0 0 2012 2539" xmlns="http://www.w3.org/2000/svg" xmlns:xlink="http://www.w3.org/1999/xlink">
<g transform="translate(.5 .5)">
<g>
<path d="M20 38v20m10 -20v20m-10 -10h20"></path>
</g>
<g>
<path d="M40 48h0"></path>
<path d="M1972 48h0"></path>
<path d="M40 48h20"></path>
<g>
<path d="M60 48h0"></path>
<path d="M1952 48h0"></path>
<g>
<path d="M60 48h0"></path>
<path d="M156 48h0"></path>
<path d="M60 48h10"></path>
<g class="non-terminal ">
<path d="M70 48h0"></path>
<path d="M146 48h0"></path>
<rect x="70" y="37" width="76" height="22"></rect>
<text x="108" y="52">Palabra</text>
</g>
<path d="M146 48h10"></path>
<path d="M70 48a10 10 0 0 0 -10 10v0a10 10 0 0 0 10 10"></path>
<g>
<path d="M70 68h76"></path>
</g>
<path d="M146 68a10 10 0 0 0 10 -10v0a10 10 0 0 0 -10 -10"></path>
</g>
<path d="M156 48h10"></path>
<path d="M166 48h10"></path>
<g class="terminal ">
<path d="M176 48h0"></path>
<path d="M204 48h0"></path>
<rect x="176" y="37" width="28" height="22" rx="10" ry="10"></rect>
<text x="190" y="52">.</text>
</g>
<path d="M204 48h10"></path>
<path d="M214 48h10"></path>
<g class="terminal ">
<path d="M224 48h0"></path>
<path d="M340 48h0"></path>
<rect x="224" y="37" width="116" height="22" rx="10" ry="10"></rect>
<text x="282" y="52">Ingredients.</text>
</g>
<path d="M340 48h10"></path>
<path d="M350 48h10"></path>
<g>
<path d="M360 48h0"></path>
<path d="M932 48h0"></path>
<path d="M360 48h10"></path>
<g>
<path d="M370 48h0"></path>
<path d="M922 48h0"></path>
<g class="non-terminal ">
<path d="M370 48h0"></path>
<path d="M438 48h0"></path>
<rect x="370" y="37" width="68" height="22"></rect>
<text x="404" y="52">Entero</text>
</g>
<path d="M438 48h10"></path>
<g>
<path d="M448 48h0"></path>
<path d="M816 48h0"></path>
<path d="M448 48a10 10 0 0 0 10 -10v0a10 10 0 0 1 10 -10"></path>
<g>
<path d="M468 28h328"></path>
</g>
<path d="M796 28a10 10 0 0 1 10 10v0a10 10 0 0 0 10 10"></path>
<path d="M448 48h20"></path>
<g>
<path d="M468 48h0"></path>
<path d="M796 48h0"></path>
<path d="M468 48h20"></path>
<g class="terminal ">
<path d="M488 48h130"></path>
<path d="M646 48h130"></path>
<rect x="618" y="37" width="28" height="22" rx="10" ry="10"></rect>
<text x="632" y="52">g</text>
</g>
<path d="M776 48h20"></path>
<path d="M468 48a10 10 0 0 1 10 10v10a10 10 0 0 0 10 10"></path>
<g class="terminal ">
<path d="M488 78h126"></path>
<path d="M650 78h126"></path>
<rect x="614" y="67" width="36" height="22" rx="10" ry="10"></rect>
<text x="632" y="82">kg</text>
</g>
<path d="M776 78a10 10 0 0 0 10 -10v-10a10 10 0 0 1 10 -10"></path>
<path d="M468 48a10 10 0 0 1 10 10v40a10 10 0 0 0 10 10"></path>
<g class="terminal ">
<path d="M488 108h114"></path>
<path d="M662 108h114"></path>
<rect x="602" y="97" width="60" height="22" rx="10" ry="10"></rect>
<text x="632" y="112">pinch</text>
</g>
<path d="M776 108a10 10 0 0 0 10 -10v-40a10 10 0 0 1 10 -10"></path>
<path d="M468 48a10 10 0 0 1 10 10v79a10 10 0 0 0 10 10"></path>
<g>
<path d="M488 147h32"></path>
<path d="M744 147h32"></path>
<g>
<path d="M520 147h0"></path>
<path d="M668 147h0"></path>
<path d="M520 147a10 10 0 0 0 10 -10v0a10 10 0 0 1 10 -10"></path>
<g>
<path d="M540 127h108"></path>
</g>
<path d="M648 127a10 10 0 0 1 10 10v0a10 10 0 0 0 10 10"></path>
<path d="M520 147h20"></path>
<g>
<path d="M540 147h0"></path>
<path d="M648 147h0"></path>
<path d="M540 147h20"></path>
<g class="terminal ">
<path d="M560 147h0"></path>
<path d="M628 147h0"></path>
<rect x="560" y="136" width="68" height="22" rx="10" ry="10"></rect>
<text x="594" y="151">heaped</text>
</g>
<path d="M628 147h20"></path>
<path d="M540 147a10 10 0 0 1 10 10v10a10 10 0 0 0 10 10"></path>
<g class="terminal ">
<path d="M560 177h4"></path>
<path d="M624 177h4"></path>
<rect x="564" y="166" width="60" height="22" rx="10" ry="10"></rect>
<text x="594" y="181">level</text>
</g>
<path d="M628 177a10 10 0 0 0 10 -10v-10a10 10 0 0 1 10 -10"></path>
</g>
<path d="M648 147h20"></path>
</g>
<g>
<path d="M668 147h0"></path>
<path d="M744 147h0"></path>
<path d="M668 147h20"></path>
<g class="terminal ">
<path d="M688 147h0"></path>
<path d="M724 147h0"></path>
<rect x="688" y="136" width="36" height="22" rx="10" ry="10"></rect>
<text x="706" y="151">ml</text>
</g>
<path d="M724 147h20"></path>
<path d="M668 147a10 10 0 0 1 10 10v10a10 10 0 0 0 10 10"></path>
<g class="terminal ">
<path d="M688 177h4"></path>
<path d="M720 177h4"></path>
<rect x="692" y="166" width="28" height="22" rx="10" ry="10"></rect>
<text x="706" y="181">l</text>
</g>
<path d="M724 177a10 10 0 0 0 10 -10v-10a10 10 0 0 1 10 -10"></path>
</g>
</g>
<path d="M776 147a10 10 0 0 0 10 -10v-79a10 10 0 0 1 10 -10"></path>
<path d="M468 48a10 10 0 0 1 10 10v148a10 10 0 0 0 10 10"></path>
<g>
<path d="M488 216h0"></path>
<path d="M776 216h0"></path>
<g>
<path d="M488 216h0"></path>
<path d="M636 216h0"></path>
<path d="M488 216a10 10 0 0 0 10 -10v0a10 10 0 0 1 10 -10"></path>
<g>
<path d="M508 196h108"></path>
</g>
<path d="M616 196a10 10 0 0 1 10 10v0a10 10 0 0 0 10 10"></path>
<path d="M488 216h20"></path>
<g>
<path d="M508 216h0"></path>
<path d="M616 216h0"></path>
<path d="M508 216h20"></path>
<g class="terminal ">
<path d="M528 216h0"></path>
<path d="M596 216h0"></path>
<rect x="528" y="205" width="68" height="22" rx="10" ry="10"></rect>
<text x="562" y="220">heaped</text>
</g>
<path d="M596 216h20"></path>
<path d="M508 216a10 10 0 0 1 10 10v10a10 10 0 0 0 10 10"></path>
<g class="terminal ">
<path d="M528 246h4"></path>
<path d="M592 246h4"></path>
<rect x="532" y="235" width="60" height="22" rx="10" ry="10"></rect>
<text x="562" y="250">level</text>
</g>
<path d="M596 246a10 10 0 0 0 10 -10v-10a10 10 0 0 1 10 -10"></path>
</g>
<path d="M616 216h20"></path>
</g>
<g>
<path d="M636 216h0"></path>
<path d="M776 216h0"></path>
<path d="M636 216h20"></path>
<g class="terminal ">
<path d="M656 216h0"></path>
<path d="M756 216h0"></path>
<rect x="656" y="205" width="100" height="22" rx="10" ry="10"></rect>
<text x="706" y="220">tablespoon</text>
</g>
<path d="M756 216h20"></path>
<path d="M636 216a10 10 0 0 1 10 10v10a10 10 0 0 0 10 10"></path>
<g class="terminal ">
<path d="M656 246h8"></path>
<path d="M748 246h8"></path>
<rect x="664" y="235" width="84" height="22" rx="10" ry="10"></rect>
<text x="706" y="250">teaspoon</text>
</g>
<path d="M756 246a10 10 0 0 0 10 -10v-10a10 10 0 0 1 10 -10"></path>
<path d="M636 216a10 10 0 0 1 10 10v40a10 10 0 0 0 10 10"></path>
<g class="terminal ">
<path d="M656 276h28"></path>
<path d="M728 276h28"></path>
<rect x="684" y="265" width="44" height="22" rx="10" ry="10"></rect>
<text x="706" y="280">cup</text>
</g>
<path d="M756 276a10 10 0 0 0 10 -10v-40a10 10 0 0 1 10 -10"></path>
</g>
</g>
<path d="M776 216a10 10 0 0 0 10 -10v-148a10 10 0 0 1 10 -10"></path>
</g>
<path d="M796 48h20"></path>
</g>
<path d="M816 48h10"></path>
<g>
<path d="M826 48h0"></path>
<path d="M922 48h0"></path>
<path d="M826 48h10"></path>
<g class="non-terminal ">
<path d="M836 48h0"></path>
<path d="M912 48h0"></path>
<rect x="836" y="37" width="76" height="22"></rect>
<text x="874" y="52">Palabra</text>
</g>
<path d="M912 48h10"></path>
<path d="M836 48a10 10 0 0 0 -10 10v0a10 10 0 0 0 10 10"></path>
<g>
<path d="M836 68h76"></path>
</g>
<path d="M912 68a10 10 0 0 0 10 -10v0a10 10 0 0 0 -10 -10"></path>
</g>
</g>
<path d="M922 48h10"></path>
<path d="M370 48a10 10 0 0 0 -10 10v227a10 10 0 0 0 10 10"></path>
<g>
<path d="M370 295h552"></path>
</g>
<path d="M922 295a10 10 0 0 0 10 -10v-227a10 10 0 0 0 -10 -10"></path>
</g>
<path d="M932 48h10"></path>
<path d="M942 48h10"></path>
<g>
<path d="M952 48h0"></path>
<path d="M1952 48h0"></path>
<path d="M952 48h10"></path>
<g>
<path d="M962 48h0"></path>
<path d="M1942 48h0"></path>
<path d="M962 48h20"></path>
<g>
<path d="M982 48h152"></path>
<path d="M1770 48h152"></path>
<g class="terminal ">
<path d="M1134 48h0"></path>
<path d="M1178 48h0"></path>
<rect x="1134" y="37" width="44" height="22" rx="10" ry="10"></rect>
<text x="1156" y="52">Add</text>
</g>
<path d="M1178 48h10"></path>
<path d="M1188 48h10"></path>
<g>
<path d="M1198 48h0"></path>
<path d="M1294 48h0"></path>
<path d="M1198 48h10"></path>
<g class="non-terminal ">
<path d="M1208 48h0"></path>
<path d="M1284 48h0"></path>
<rect x="1208" y="37" width="76" height="22"></rect>
<text x="1246" y="52">Palabra</text>
</g>
<path d="M1284 48h10"></path>
<path d="M1208 48a10 10 0 0 0 -10 10v0a10 10 0 0 0 10 10"></path>
<g>
<path d="M1208 68h76"></path>
</g>
<path d="M1284 68a10 10 0 0 0 10 -10v0a10 10 0 0 0 -10 -10"></path>
</g>
<path d="M1294 48h10"></path>
<g>
<path d="M1304 48h0"></path>
<path d="M1732 48h0"></path>
<path d="M1304 48a10 10 0 0 0 10 -10v-8a10 10 0 0 1 10 -10"></path>
<g>
<path d="M1324 20h388"></path>
</g>
<path d="M1712 20a10 10 0 0 1 10 10v8a10 10 0 0 0 10 10"></path>
<path d="M1304 48h20"></path>
<g>
<path d="M1324 48h0"></path>
<path d="M1712 48h0"></path>
<g class="terminal ">
<path d="M1324 48h0"></path>
<path d="M1376 48h0"></path>
<rect x="1324" y="37" width="52" height="22" rx="10" ry="10"></rect>
<text x="1350" y="52">into</text>
</g>
<path d="M1376 48h10"></path>
<g>
<path d="M1386 48h0"></path>
<path d="M1470 48h0"></path>
<path d="M1386 48a10 10 0 0 0 10 -10v0a10 10 0 0 1 10 -10"></path>
<g>
<path d="M1406 28h44"></path>
</g>
<path d="M1450 28a10 10 0 0 1 10 10v0a10 10 0 0 0 10 10"></path>
<path d="M1386 48h20"></path>
<g class="terminal ">
<path d="M1406 48h0"></path>
<path d="M1450 48h0"></path>
<rect x="1406" y="37" width="44" height="22" rx="10" ry="10"></rect>
<text x="1428" y="52">the</text>
</g>
<path d="M1450 48h20"></path>
</g>
<g>
<path d="M1470 48h0"></path>
<path d="M1594 48h0"></path>
<path d="M1470 48a10 10 0 0 0 10 -10v0a10 10 0 0 1 10 -10"></path>
<g>
<path d="M1490 28h84"></path>
</g>
<path d="M1574 28a10 10 0 0 1 10 10v0a10 10 0 0 0 10 10"></path>
<path d="M1470 48h20"></path>
<g>
<path d="M1490 48h0"></path>
<path d="M1574 48h0"></path>
<path d="M1490 48h20"></path>
<g class="terminal ">
<path d="M1510 48h0"></path>
<path d="M1554 48h0"></path>
<rect x="1510" y="37" width="44" height="22" rx="10" ry="10"></rect>
<text x="1532" y="52">1st</text>
</g>
<path d="M1554 48h20"></path>
<path d="M1490 48a10 10 0 0 1 10 10v10a10 10 0 0 0 10 10"></path>
<g class="terminal ">
<path d="M1510 78h0"></path>
<path d="M1554 78h0"></path>
<rect x="1510" y="67" width="44" height="22" rx="10" ry="10"></rect>
<text x="1532" y="82">2nd</text>
</g>
<path d="M1554 78a10 10 0 0 0 10 -10v-10a10 10 0 0 1 10 -10"></path>
<path d="M1490 48a10 10 0 0 1 10 10v40a10 10 0 0 0 10 10"></path>
<g class="terminal ">
<path d="M1510 108h0"></path>
<path d="M1554 108h0"></path>
<rect x="1510" y="97" width="44" height="22" rx="10" ry="10"></rect>
<text x="1532" y="112">3rd</text>
</g>
<path d="M1554 108a10 10 0 0 0 10 -10v-40a10 10 0 0 1 10 -10"></path>
<path d="M1490 48a10 10 0 0 1 10 10v70a10 10 0 0 0 10 10"></path>
<g class="terminal ">
<path d="M1510 138h0"></path>
<path d="M1554 138h0"></path>
<rect x="1510" y="127" width="44" height="22" rx="10" ry="10"></rect>
<text x="1532" y="142">4th</text>
</g>
<path d="M1554 138a10 10 0 0 0 10 -10v-70a10 10 0 0 1 10 -10"></path>
<path d="M1490 48a10 10 0 0 1 10 10v100a10 10 0 0 0 10 10"></path>
<g class="terminal ">
<path d="M1510 168h0"></path>
<path d="M1554 168h0"></path>
<rect x="1510" y="157" width="44" height="22" rx="10" ry="10"></rect>
<text x="1532" y="172">5th</text>
</g>
<path d="M1554 168a10 10 0 0 0 10 -10v-100a10 10 0 0 1 10 -10"></path>
</g>
<path d="M1574 48h20"></path>
</g>
<path d="M1594 48h10"></path>
<g class="terminal ">
<path d="M1604 48h0"></path>
<path d="M1712 48h0"></path>
<rect x="1604" y="37" width="108" height="22" rx="10" ry="10"></rect>
<text x="1658" y="52">mixing bowl</text>
</g>
</g>
<path d="M1712 48h20"></path>
</g>
<path d="M1732 48h10"></path>
<g class="terminal ">
<path d="M1742 48h0"></path>
<path d="M1770 48h0"></path>
<rect x="1742" y="37" width="28" height="22" rx="10" ry="10"></rect>
<text x="1756" y="52">.</text>
</g>
</g>
<path d="M1922 48h20"></path>
<path d="M962 48a10 10 0 0 1 10 10v139a10 10 0 0 0 10 10"></path>
<g>
<path d="M982 207h162"></path>
<path d="M1760 207h162"></path>
<g class="terminal ">
<path d="M1144 207h0"></path>
<path d="M1188 207h0"></path>
<rect x="1144" y="196" width="44" height="22" rx="10" ry="10"></rect>
<text x="1166" y="211">Put</text>
</g>
<path d="M1188 207h10"></path>
<path d="M1198 207h10"></path>
<g>
<path d="M1208 207h0"></path>
<path d="M1304 207h0"></path>
<path d="M1208 207h10"></path>
<g class="non-terminal ">
<path d="M1218 207h0"></path>
<path d="M1294 207h0"></path>
<rect x="1218" y="196" width="76" height="22"></rect>
<text x="1256" y="211">Palabra</text>
</g>
<path d="M1294 207h10"></path>
<path d="M1218 207a10 10 0 0 0 -10 10v0a10 10 0 0 0 10 10"></path>
<g>
<path d="M1218 227h76"></path>
</g>
<path d="M1294 227a10 10 0 0 0 10 -10v0a10 10 0 0 0 -10 -10"></path>
</g>
<path d="M1304 207h10"></path>
<path d="M1314 207h10"></path>
<g class="terminal ">
<path d="M1324 207h0"></path>
<path d="M1376 207h0"></path>
<rect x="1324" y="196" width="52" height="22" rx="10" ry="10"></rect>
<text x="1350" y="211">into</text>
</g>
<path d="M1376 207h10"></path>
<g>
<path d="M1386 207h0"></path>
<path d="M1470 207h0"></path>
<path d="M1386 207a10 10 0 0 0 10 -10v0a10 10 0 0 1 10 -10"></path>
<g>
<path d="M1406 187h44"></path>
</g>
<path d="M1450 187a10 10 0 0 1 10 10v0a10 10 0 0 0 10 10"></path>
<path d="M1386 207h20"></path>
<g class="terminal ">
<path d="M1406 207h0"></path>
<path d="M1450 207h0"></path>
<rect x="1406" y="196" width="44" height="22" rx="10" ry="10"></rect>
<text x="1428" y="211">the</text>
</g>
<path d="M1450 207h20"></path>
</g>
<g>
<path d="M1470 207h0"></path>
<path d="M1594 207h0"></path>
<path d="M1470 207a10 10 0 0 0 10 -10v0a10 10 0 0 1 10 -10"></path>
<g>
<path d="M1490 187h84"></path>
</g>
<path d="M1574 187a10 10 0 0 1 10 10v0a10 10 0 0 0 10 10"></path>
<path d="M1470 207h20"></path>
<g>
<path d="M1490 207h0"></path>
<path d="M1574 207h0"></path>
<path d="M1490 207h20"></path>
<g class="terminal ">
<path d="M1510 207h0"></path>
<path d="M1554 207h0"></path>
<rect x="1510" y="196" width="44" height="22" rx="10" ry="10"></rect>
<text x="1532" y="211">1st</text>
</g>
<path d="M1554 207h20"></path>
<path d="M1490 207a10 10 0 0 1 10 10v10a10 10 0 0 0 10 10"></path>
<g class="terminal ">
<path d="M1510 237h0"></path>
<path d="M1554 237h0"></path>
<rect x="1510" y="226" width="44" height="22" rx="10" ry="10"></rect>
<text x="1532" y="241">2nd</text>
</g>
<path d="M1554 237a10 10 0 0 0 10 -10v-10a10 10 0 0 1 10 -10"></path>
<path d="M1490 207a10 10 0 0 1 10 10v40a10 10 0 0 0 10 10"></path>
<g class="terminal ">
<path d="M1510 267h0"></path>
<path d="M1554 267h0"></path>
<rect x="1510" y="256" width="44" height="22" rx="10" ry="10"></rect>
<text x="1532" y="271">3rd</text>
</g>
<path d="M1554 267a10 10 0 0 0 10 -10v-40a10 10 0 0 1 10 -10"></path>
<path d="M1490 207a10 10 0 0 1 10 10v70a10 10 0 0 0 10 10"></path>
<g class="terminal ">
<path d="M1510 297h0"></path>
<path d="M1554 297h0"></path>
<rect x="1510" y="286" width="44" height="22" rx="10" ry="10"></rect>
<text x="1532" y="301">4th</text>
</g>
<path d="M1554 297a10 10 0 0 0 10 -10v-70a10 10 0 0 1 10 -10"></path>
<path d="M1490 207a10 10 0 0 1 10 10v100a10 10 0 0 0 10 10"></path>
<g class="terminal ">
<path d="M1510 327h0"></path>
<path d="M1554 327h0"></path>
<rect x="1510" y="316" width="44" height="22" rx="10" ry="10"></rect>
<text x="1532" y="331">5th</text>
</g>
<path d="M1554 327a10 10 0 0 0 10 -10v-100a10 10 0 0 1 10 -10"></path>
</g>
<path d="M1574 207h20"></path>
</g>
<path d="M1594 207h10"></path>
<g class="terminal ">
<path d="M1604 207h0"></path>
<path d="M1712 207h0"></path>
<rect x="1604" y="196" width="108" height="22" rx="10" ry="10"></rect>
<text x="1658" y="211">mixing bowl</text>
</g>
<path d="M1712 207h10"></path>
<path d="M1722 207h10"></path>
<g class="terminal ">
<path d="M1732 207h0"></path>
<path d="M1760 207h0"></path>
<rect x="1732" y="196" width="28" height="22" rx="10" ry="10"></rect>
<text x="1746" y="211">.</text>
</g>
</g>
<path d="M1922 207a10 10 0 0 0 10 -10v-139a10 10 0 0 1 10 -10"></path>
<path d="M962 48a10 10 0 0 1 10 10v298a10 10 0 0 0 10 10"></path>
<g>
<path d="M982 366h158"></path>
<path d="M1764 366h158"></path>
<g class="terminal ">
<path d="M1140 366h0"></path>
<path d="M1192 366h0"></path>
<rect x="1140" y="355" width="52" height="22" rx="10" ry="10"></rect>
<text x="1166" y="370">Fold</text>
</g>
<path d="M1192 366h10"></path>
<path d="M1202 366h10"></path>
<g>
<path d="M1212 366h0"></path>
<path d="M1308 366h0"></path>
<path d="M1212 366h10"></path>
<g class="non-terminal ">
<path d="M1222 366h0"></path>
<path d="M1298 366h0"></path>
<rect x="1222" y="355" width="76" height="22"></rect>
<text x="1260" y="370">Palabra</text>
</g>
<path d="M1298 366h10"></path>
<path d="M1222 366a10 10 0 0 0 -10 10v0a10 10 0 0 0 10 10"></path>
<g>
<path d="M1222 386h76"></path>
</g>
<path d="M1298 386a10 10 0 0 0 10 -10v0a10 10 0 0 0 -10 -10"></path>
</g>
<path d="M1308 366h10"></path>
<path d="M1318 366h10"></path>
<g class="terminal ">
<path d="M1328 366h0"></path>
<path d="M1380 366h0"></path>
<rect x="1328" y="355" width="52" height="22" rx="10" ry="10"></rect>
<text x="1354" y="370">into</text>
</g>
<path d="M1380 366h10"></path>
<g>
<path d="M1390 366h0"></path>
<path d="M1474 366h0"></path>
<path d="M1390 366a10 10 0 0 0 10 -10v0a10 10 0 0 1 10 -10"></path>
<g>
<path d="M1410 346h44"></path>
</g>
<path d="M1454 346a10 10 0 0 1 10 10v0a10 10 0 0 0 10 10"></path>
<path d="M1390 366h20"></path>
<g class="terminal ">
<path d="M1410 366h0"></path>
<path d="M1454 366h0"></path>
<rect x="1410" y="355" width="44" height="22" rx="10" ry="10"></rect>
<text x="1432" y="370">the</text>
</g>
<path d="M1454 366h20"></path>
</g>
<g>
<path d="M1474 366h0"></path>
<path d="M1598 366h0"></path>
<path d="M1474 366a10 10 0 0 0 10 -10v0a10 10 0 0 1 10 -10"></path>
<g>
<path d="M1494 346h84"></path>
</g>
<path d="M1578 346a10 10 0 0 1 10 10v0a10 10 0 0 0 10 10"></path>
<path d="M1474 366h20"></path>
<g>
<path d="M1494 366h0"></path>
<path d="M1578 366h0"></path>
<path d="M1494 366h20"></path>
<g class="terminal ">
<path d="M1514 366h0"></path>
<path d="M1558 366h0"></path>
<rect x="1514" y="355" width="44" height="22" rx="10" ry="10"></rect>
<text x="1536" y="370">1st</text>
</g>
<path d="M1558 366h20"></path>
<path d="M1494 366a10 10 0 0 1 10 10v10a10 10 0 0 0 10 10"></path>
<g class="terminal ">
<path d="M1514 396h0"></path>
<path d="M1558 396h0"></path>
<rect x="1514" y="385" width="44" height="22" rx="10" ry="10"></rect>
<text x="1536" y="400">2nd</text>
</g>
<path d="M1558 396a10 10 0 0 0 10 -10v-10a10 10 0 0 1 10 -10"></path>
<path d="M1494 366a10 10 0 0 1 10 10v40a10 10 0 0 0 10 10"></path>
<g class="terminal ">
<path d="M1514 426h0"></path>
<path d="M1558 426h0"></path>
<rect x="1514" y="415" width="44" height="22" rx="10" ry="10"></rect>
<text x="1536" y="430">3rd</text>
</g>
<path d="M1558 426a10 10 0 0 0 10 -10v-40a10 10 0 0 1 10 -10"></path>
<path d="M1494 366a10 10 0 0 1 10 10v70a10 10 0 0 0 10 10"></path>
<g class="terminal ">
<path d="M1514 456h0"></path>
<path d="M1558 456h0"></path>
<rect x="1514" y="445" width="44" height="22" rx="10" ry="10"></rect>
<text x="1536" y="460">4th</text>
</g>
<path d="M1558 456a10 10 0 0 0 10 -10v-70a10 10 0 0 1 10 -10"></path>
<path d="M1494 366a10 10 0 0 1 10 10v100a10 10 0 0 0 10 10"></path>
<g class="terminal ">
<path d="M1514 486h0"></path>
<path d="M1558 486h0"></path>
<rect x="1514" y="475" width="44" height="22" rx="10" ry="10"></rect>
<text x="1536" y="490">5th</text>
</g>
<path d="M1558 486a10 10 0 0 0 10 -10v-100a10 10 0 0 1 10 -10"></path>
</g>
<path d="M1578 366h20"></path>
</g>
<path d="M1598 366h10"></path>
<g class="terminal ">
<path d="M1608 366h0"></path>
<path d="M1716 366h0"></path>
<rect x="1608" y="355" width="108" height="22" rx="10" ry="10"></rect>
<text x="1662" y="370">mixing bowl</text>
</g>
<path d="M1716 366h10"></path>
<path d="M1726 366h10"></path>
<g class="terminal ">
<path d="M1736 366h0"></path>
<path d="M1764 366h0"></path>
<rect x="1736" y="355" width="28" height="22" rx="10" ry="10"></rect>
<text x="1750" y="370">.</text>
</g>
</g>
<path d="M1922 366a10 10 0 0 0 10 -10v-298a10 10 0 0 1 10 -10"></path>
<path d="M962 48a10 10 0 0 1 10 10v465a10 10 0 0 0 10 10"></path>
<g>
<path d="M982 533h140"></path>
<path d="M1782 533h140"></path>
<g class="terminal ">
<path d="M1122 533h0"></path>
<path d="M1190 533h0"></path>
<rect x="1122" y="522" width="68" height="22" rx="10" ry="10"></rect>
<text x="1156" y="537">Remove</text>
</g>
<path d="M1190 533h10"></path>
<path d="M1200 533h10"></path>
<g>
<path d="M1210 533h0"></path>
<path d="M1306 533h0"></path>
<path d="M1210 533h10"></path>
<g class="non-terminal ">
<path d="M1220 533h0"></path>
<path d="M1296 533h0"></path>
<rect x="1220" y="522" width="76" height="22"></rect>
<text x="1258" y="537">Palabra</text>
</g>
<path d="M1296 533h10"></path>
<path d="M1220 533a10 10 0 0 0 -10 10v0a10 10 0 0 0 10 10"></path>
<g>
<path d="M1220 553h76"></path>
</g>
<path d="M1296 553a10 10 0 0 0 10 -10v0a10 10 0 0 0 -10 -10"></path>
</g>
<path d="M1306 533h10"></path>
<g>
<path d="M1316 533h0"></path>
<path d="M1744 533h0"></path>
<path d="M1316 533a10 10 0 0 0 10 -10v-8a10 10 0 0 1 10 -10"></path>
<g>
<path d="M1336 505h388"></path>
</g>
<path d="M1724 505a10 10 0 0 1 10 10v8a10 10 0 0 0 10 10"></path>
<path d="M1316 533h20"></path>
<g>
<path d="M1336 533h0"></path>
<path d="M1724 533h0"></path>
<g class="terminal ">
<path d="M1336 533h0"></path>
<path d="M1388 533h0"></path>
<rect x="1336" y="522" width="52" height="22" rx="10" ry="10"></rect>
<text x="1362" y="537">from</text>
</g>
<path d="M1388 533h10"></path>
<g>
<path d="M1398 533h0"></path>
<path d="M1482 533h0"></path>
<path d="M1398 533a10 10 0 0 0 10 -10v0a10 10 0 0 1 10 -10"></path>
<g>
<path d="M1418 513h44"></path>
</g>
<path d="M1462 513a10 10 0 0 1 10 10v0a10 10 0 0 0 10 10"></path>
<path d="M1398 533h20"></path>
<g class="terminal ">
<path d="M1418 533h0"></path>
<path d="M1462 533h0"></path>
<rect x="1418" y="522" width="44" height="22" rx="10" ry="10"></rect>
<text x="1440" y="537">the</text>
</g>
<path d="M1462 533h20"></path>
</g>
<g>
<path d="M1482 533h0"></path>
<path d="M1606 533h0"></path>
<path d="M1482 533a10 10 0 0 0 10 -10v0a10 10 0 0 1 10 -10"></path>
<g>
<path d="M1502 513h84"></path>
</g>
<path d="M1586 513a10 10 0 0 1 10 10v0a10 10 0 0 0 10 10"></path>
<path d="M1482 533h20"></path>
<g>
<path d="M1502 533h0"></path>
<path d="M1586 533h0"></path>
<path d="M1502 533h20"></path>
<g class="terminal ">
<path d="M1522 533h0"></path>
<path d="M1566 533h0"></path>
<rect x="1522" y="522" width="44" height="22" rx="10" ry="10"></rect>
<text x="1544" y="537">1st</text>
</g>
<path d="M1566 533h20"></path>
<path d="M1502 533a10 10 0 0 1 10 10v10a10 10 0 0 0 10 10"></path>
<g class="terminal ">
<path d="M1522 563h0"></path>
<path d="M1566 563h0"></path>
<rect x="1522" y="552" width="44" height="22" rx="10" ry="10"></rect>
<text x="1544" y="567">2nd</text>
</g>
<path d="M1566 563a10 10 0 0 0 10 -10v-10a10 10 0 0 1 10 -10"></path>
<path d="M1502 533a10 10 0 0 1 10 10v40a10 10 0 0 0 10 10"></path>
<g class="terminal ">
<path d="M1522 593h0"></path>
<path d="M1566 593h0"></path>
<rect x="1522" y="582" width="44" height="22" rx="10" ry="10"></rect>
<text x="1544" y="597">3rd</text>
</g>
<path d="M1566 593a10 10 0 0 0 10 -10v-40a10 10 0 0 1 10 -10"></path>
<path d="M1502 533a10 10 0 0 1 10 10v70a10 10 0 0 0 10 10"></path>
<g class="terminal ">
<path d="M1522 623h0"></path>
<path d="M1566 623h0"></path>
<rect x="1522" y="612" width="44" height="22" rx="10" ry="10"></rect>
<text x="1544" y="627">4th</text>
</g>
<path d="M1566 623a10 10 0 0 0 10 -10v-70a10 10 0 0 1 10 -10"></path>
<path d="M1502 533a10 10 0 0 1 10 10v100a10 10 0 0 0 10 10"></path>
<g class="terminal ">
<path d="M1522 653h0"></path>
<path d="M1566 653h0"></path>
<rect x="1522" y="642" width="44" height="22" rx="10" ry="10"></rect>
<text x="1544" y="657">5th</text>
</g>
<path d="M1566 653a10 10 0 0 0 10 -10v-100a10 10 0 0 1 10 -10"></path>
</g>
<path d="M1586 533h20"></path>
</g>
<path d="M1606 533h10"></path>
<g class="terminal ">
<path d="M1616 533h0"></path>
<path d="M1724 533h0"></path>
<rect x="1616" y="522" width="108" height="22" rx="10" ry="10"></rect>
<text x="1670" y="537">mixing bowl</text>
</g>
</g>
<path d="M1724 533h20"></path>
</g>
<path d="M1744 533h10"></path>
<g class="terminal ">
<path d="M1754 533h0"></path>
<path d="M1782 533h0"></path>
<rect x="1754" y="522" width="28" height="22" rx="10" ry="10"></rect>
<text x="1768" y="537">.</text>
</g>
</g>
<path d="M1922 533a10 10 0 0 0 10 -10v-465a10 10 0 0 1 10 -10"></path>
<path d="M962 48a10 10 0 0 1 10 10v632a10 10 0 0 0 10 10"></path>
<g>
<path d="M982 700h136"></path>
<path d="M1786 700h136"></path>
<g class="terminal ">
<path d="M1118 700h0"></path>
<path d="M1194 700h0"></path>
<rect x="1118" y="689" width="76" height="22" rx="10" ry="10"></rect>
<text x="1156" y="704">Combine</text>
</g>
<path d="M1194 700h10"></path>
<path d="M1204 700h10"></path>
<g>
<path d="M1214 700h0"></path>
<path d="M1310 700h0"></path>
<path d="M1214 700h10"></path>
<g class="non-terminal ">
<path d="M1224 700h0"></path>
<path d="M1300 700h0"></path>
<rect x="1224" y="689" width="76" height="22"></rect>
<text x="1262" y="704">Palabra</text>
</g>
<path d="M1300 700h10"></path>
<path d="M1224 700a10 10 0 0 0 -10 10v0a10 10 0 0 0 10 10"></path>
<g>
<path d="M1224 720h76"></path>
</g>
<path d="M1300 720a10 10 0 0 0 10 -10v0a10 10 0 0 0 -10 -10"></path>
</g>
<path d="M1310 700h10"></path>
<g>
<path d="M1320 700h0"></path>
<path d="M1748 700h0"></path>
<path d="M1320 700a10 10 0 0 0 10 -10v-8a10 10 0 0 1 10 -10"></path>
<g>
<path d="M1340 672h388"></path>
</g>
<path d="M1728 672a10 10 0 0 1 10 10v8a10 10 0 0 0 10 10"></path>
<path d="M1320 700h20"></path>
<g>
<path d="M1340 700h0"></path>
<path d="M1728 700h0"></path>
<g class="terminal ">
<path d="M1340 700h0"></path>
<path d="M1392 700h0"></path>
<rect x="1340" y="689" width="52" height="22" rx="10" ry="10"></rect>
<text x="1366" y="704">into</text>
</g>
<path d="M1392 700h10"></path>
<g>
<path d="M1402 700h0"></path>
<path d="M1486 700h0"></path>
<path d="M1402 700a10 10 0 0 0 10 -10v0a10 10 0 0 1 10 -10"></path>
<g>
<path d="M1422 680h44"></path>
</g>
<path d="M1466 680a10 10 0 0 1 10 10v0a10 10 0 0 0 10 10"></path>
<path d="M1402 700h20"></path>
<g class="terminal ">
<path d="M1422 700h0"></path>
<path d="M1466 700h0"></path>
<rect x="1422" y="689" width="44" height="22" rx="10" ry="10"></rect>
<text x="1444" y="704">the</text>
</g>
<path d="M1466 700h20"></path>
</g>
<g>
<path d="M1486 700h0"></path>
<path d="M1610 700h0"></path>
<path d="M1486 700a10 10 0 0 0 10 -10v0a10 10 0 0 1 10 -10"></path>
<g>
<path d="M1506 680h84"></path>
</g>
<path d="M1590 680a10 10 0 0 1 10 10v0a10 10 0 0 0 10 10"></path>
<path d="M1486 700h20"></path>
<g>
<path d="M1506 700h0"></path>
<path d="M1590 700h0"></path>
<path d="M1506 700h20"></path>
<g class="terminal ">
<path d="M1526 700h0"></path>
<path d="M1570 700h0"></path>
<rect x="1526" y="689" width="44" height="22" rx="10" ry="10"></rect>
<text x="1548" y="704">1st</text>
</g>
<path d="M1570 700h20"></path>
<path d="M1506 700a10 10 0 0 1 10 10v10a10 10 0 0 0 10 10"></path>
<g class="terminal ">
<path d="M1526 730h0"></path>
<path d="M1570 730h0"></path>
<rect x="1526" y="719" width="44" height="22" rx="10" ry="10"></rect>
<text x="1548" y="734">2nd</text>
</g>
<path d="M1570 730a10 10 0 0 0 10 -10v-10a10 10 0 0 1 10 -10"></path>
<path d="M1506 700a10 10 0 0 1 10 10v40a10 10 0 0 0 10 10"></path>
<g class="terminal ">
<path d="M1526 760h0"></path>
<path d="M1570 760h0"></path>
<rect x="1526" y="749" width="44" height="22" rx="10" ry="10"></rect>
<text x="1548" y="764">3rd</text>
</g>
<path d="M1570 760a10 10 0 0 0 10 -10v-40a10 10 0 0 1 10 -10"></path>
<path d="M1506 700a10 10 0 0 1 10 10v70a10 10 0 0 0 10 10"></path>
<g class="terminal ">
<path d="M1526 790h0"></path>
<path d="M1570 790h0"></path>
<rect x="1526" y="779" width="44" height="22" rx="10" ry="10"></rect>
<text x="1548" y="794">4th</text>
</g>
<path d="M1570 790a10 10 0 0 0 10 -10v-70a10 10 0 0 1 10 -10"></path>
<path d="M1506 700a10 10 0 0 1 10 10v100a10 10 0 0 0 10 10"></path>
<g class="terminal ">
<path d="M1526 820h0"></path>
<path d="M1570 820h0"></path>
<rect x="1526" y="809" width="44" height="22" rx="10" ry="10"></rect>
<text x="1548" y="824">5th</text>
</g>
<path d="M1570 820a10 10 0 0 0 10 -10v-100a10 10 0 0 1 10 -10"></path>
</g>
<path d="M1590 700h20"></path>
</g>
<path d="M1610 700h10"></path>
<g class="terminal ">
<path d="M1620 700h0"></path>
<path d="M1728 700h0"></path>
<rect x="1620" y="689" width="108" height="22" rx="10" ry="10"></rect>
<text x="1674" y="704">mixing bowl</text>
</g>
</g>
<path d="M1728 700h20"></path>
</g>
<path d="M1748 700h10"></path>
<g class="terminal ">
<path d="M1758 700h0"></path>
<path d="M1786 700h0"></path>
<rect x="1758" y="689" width="28" height="22" rx="10" ry="10"></rect>
<text x="1772" y="704">.</text>
</g>
</g>
<path d="M1922 700a10 10 0 0 0 10 -10v-632a10 10 0 0 1 10 -10"></path>
<path d="M962 48a10 10 0 0 1 10 10v799a10 10 0 0 0 10 10"></path>
<g>
<path d="M982 867h140"></path>
<path d="M1782 867h140"></path>
<g class="terminal ">
<path d="M1122 867h0"></path>
<path d="M1190 867h0"></path>
<rect x="1122" y="856" width="68" height="22" rx="10" ry="10"></rect>
<text x="1156" y="871">Divide</text>
</g>
<path d="M1190 867h10"></path>
<path d="M1200 867h10"></path>
<g>
<path d="M1210 867h0"></path>
<path d="M1306 867h0"></path>
<path d="M1210 867h10"></path>
<g class="non-terminal ">
<path d="M1220 867h0"></path>
<path d="M1296 867h0"></path>
<rect x="1220" y="856" width="76" height="22"></rect>
<text x="1258" y="871">Palabra</text>
</g>
<path d="M1296 867h10"></path>
<path d="M1220 867a10 10 0 0 0 -10 10v0a10 10 0 0 0 10 10"></path>
<g>
<path d="M1220 887h76"></path>
</g>
<path d="M1296 887a10 10 0 0 0 10 -10v0a10 10 0 0 0 -10 -10"></path>
</g>
<path d="M1306 867h10"></path>
<g>
<path d="M1316 867h0"></path>
<path d="M1744 867h0"></path>
<path d="M1316 867a10 10 0 0 0 10 -10v-8a10 10 0 0 1 10 -10"></path>
<g>
<path d="M1336 839h388"></path>
</g>
<path d="M1724 839a10 10 0 0 1 10 10v8a10 10 0 0 0 10 10"></path>
<path d="M1316 867h20"></path>
<g>
<path d="M1336 867h0"></path>
<path d="M1724 867h0"></path>
<g class="terminal ">
<path d="M1336 867h0"></path>
<path d="M1388 867h0"></path>
<rect x="1336" y="856" width="52" height="22" rx="10" ry="10"></rect>
<text x="1362" y="871">into</text>
</g>
<path d="M1388 867h10"></path>
<g>
<path d="M1398 867h0"></path>
<path d="M1482 867h0"></path>
<path d="M1398 867a10 10 0 0 0 10 -10v0a10 10 0 0 1 10 -10"></path>
<g>
<path d="M1418 847h44"></path>
</g>
<path d="M1462 847a10 10 0 0 1 10 10v0a10 10 0 0 0 10 10"></path>
<path d="M1398 867h20"></path>
<g class="terminal ">
<path d="M1418 867h0"></path>
<path d="M1462 867h0"></path>
<rect x="1418" y="856" width="44" height="22" rx="10" ry="10"></rect>
<text x="1440" y="871">the</text>
</g>
<path d="M1462 867h20"></path>
</g>
<g>
<path d="M1482 867h0"></path>
<path d="M1606 867h0"></path>
<path d="M1482 867a10 10 0 0 0 10 -10v0a10 10 0 0 1 10 -10"></path>
<g>
<path d="M1502 847h84"></path>
</g>
<path d="M1586 847a10 10 0 0 1 10 10v0a10 10 0 0 0 10 10"></path>
<path d="M1482 867h20"></path>
<g>
<path d="M1502 867h0"></path>
<path d="M1586 867h0"></path>
<path d="M1502 867h20"></path>
<g class="terminal ">
<path d="M1522 867h0"></path>
<path d="M1566 867h0"></path>
<rect x="1522" y="856" width="44" height="22" rx="10" ry="10"></rect>
<text x="1544" y="871">1st</text>
</g>
<path d="M1566 867h20"></path>
<path d="M1502 867a10 10 0 0 1 10 10v10a10 10 0 0 0 10 10"></path>
<g class="terminal ">
<path d="M1522 897h0"></path>
<path d="M1566 897h0"></path>
<rect x="1522" y="886" width="44" height="22" rx="10" ry="10"></rect>
<text x="1544" y="901">2nd</text>
</g>
<path d="M1566 897a10 10 0 0 0 10 -10v-10a10 10 0 0 1 10 -10"></path>
<path d="M1502 867a10 10 0 0 1 10 10v40a10 10 0 0 0 10 10"></path>
<g class="terminal ">
<path d="M1522 927h0"></path>
<path d="M1566 927h0"></path>
<rect x="1522" y="916" width="44" height="22" rx="10" ry="10"></rect>
<text x="1544" y="931">3rd</text>
</g>
<path d="M1566 927a10 10 0 0 0 10 -10v-40a10 10 0 0 1 10 -10"></path>
<path d="M1502 867a10 10 0 0 1 10 10v70a10 10 0 0 0 10 10"></path>
<g class="terminal ">
<path d="M1522 957h0"></path>
<path d="M1566 957h0"></path>
<rect x="1522" y="946" width="44" height="22" rx="10" ry="10"></rect>
<text x="1544" y="961">4th</text>
</g>
<path d="M1566 957a10 10 0 0 0 10 -10v-70a10 10 0 0 1 10 -10"></path>
<path d="M1502 867a10 10 0 0 1 10 10v100a10 10 0 0 0 10 10"></path>
<g class="terminal ">
<path d="M1522 987h0"></path>
<path d="M1566 987h0"></path>
<rect x="1522" y="976" width="44" height="22" rx="10" ry="10"></rect>
<text x="1544" y="991">5th</text>
</g>
<path d="M1566 987a10 10 0 0 0 10 -10v-100a10 10 0 0 1 10 -10"></path>
</g>
<path d="M1586 867h20"></path>
</g>
<path d="M1606 867h10"></path>
<g class="terminal ">
<path d="M1616 867h0"></path>
<path d="M1724 867h0"></path>
<rect x="1616" y="856" width="108" height="22" rx="10" ry="10"></rect>
<text x="1670" y="871">mixing bowl</text>
</g>
</g>
<path d="M1724 867h20"></path>
</g>
<path d="M1744 867h10"></path>
<g class="terminal ">
<path d="M1754 867h0"></path>
<path d="M1782 867h0"></path>
<rect x="1754" y="856" width="28" height="22" rx="10" ry="10"></rect>
<text x="1768" y="871">.</text>
</g>
</g>
<path d="M1922 867a10 10 0 0 0 10 -10v-799a10 10 0 0 1 10 -10"></path>
<path d="M962 48a10 10 0 0 1 10 10v966a10 10 0 0 0 10 10"></path>
<g>
<path d="M982 1034h154"></path>
<path d="M1768 1034h154"></path>
<g class="terminal ">
<path d="M1136 1034h0"></path>
<path d="M1308 1034h0"></path>
<rect x="1136" y="1023" width="172" height="22" rx="10" ry="10"></rect>
<text x="1222" y="1038">Add dry ingredients</text>
</g>
<path d="M1308 1034h10"></path>
<g>
<path d="M1318 1034h0"></path>
<path d="M1730 1034h0"></path>
<path d="M1318 1034a10 10 0 0 0 10 -10v-8a10 10 0 0 1 10 -10"></path>
<g>
<path d="M1338 1006h372"></path>
</g>
<path d="M1710 1006a10 10 0 0 1 10 10v8a10 10 0 0 0 10 10"></path>
<path d="M1318 1034h20"></path>
<g>
<path d="M1338 1034h0"></path>
<path d="M1710 1034h0"></path>
<g class="terminal ">
<path d="M1338 1034h0"></path>
<path d="M1374 1034h0"></path>
<rect x="1338" y="1023" width="36" height="22" rx="10" ry="10"></rect>
<text x="1356" y="1038">to</text>
</g>
<path d="M1374 1034h10"></path>
<g>
<path d="M1384 1034h0"></path>
<path d="M1468 1034h0"></path>
<path d="M1384 1034a10 10 0 0 0 10 -10v0a10 10 0 0 1 10 -10"></path>
<g>
<path d="M1404 1014h44"></path>
</g>
<path d="M1448 1014a10 10 0 0 1 10 10v0a10 10 0 0 0 10 10"></path>
<path d="M1384 1034h20"></path>
<g class="terminal ">
<path d="M1404 1034h0"></path>
<path d="M1448 1034h0"></path>
<rect x="1404" y="1023" width="44" height="22" rx="10" ry="10"></rect>
<text x="1426" y="1038">the</text>
</g>
<path d="M1448 1034h20"></path>
</g>
<g>
<path d="M1468 1034h0"></path>
<path d="M1592 1034h0"></path>
<path d="M1468 1034a10 10 0 0 0 10 -10v0a10 10 0 0 1 10 -10"></path>
<g>
<path d="M1488 1014h84"></path>
</g>
<path d="M1572 1014a10 10 0 0 1 10 10v0a10 10 0 0 0 10 10"></path>
<path d="M1468 1034h20"></path>
<g>
<path d="M1488 1034h0"></path>
<path d="M1572 1034h0"></path>
<path d="M1488 1034h20"></path>
<g class="terminal ">
<path d="M1508 1034h0"></path>
<path d="M1552 1034h0"></path>
<rect x="1508" y="1023" width="44" height="22" rx="10" ry="10"></rect>
<text x="1530" y="1038">1st</text>
</g>
<path d="M1552 1034h20"></path>
<path d="M1488 1034a10 10 0 0 1 10 10v10a10 10 0 0 0 10 10"></path>
<g class="terminal ">
<path d="M1508 1064h0"></path>
<path d="M1552 1064h0"></path>
<rect x="1508" y="1053" width="44" height="22" rx="10" ry="10"></rect>
<text x="1530" y="1068">2nd</text>
</g>
<path d="M1552 1064a10 10 0 0 0 10 -10v-10a10 10 0 0 1 10 -10"></path>
<path d="M1488 1034a10 10 0 0 1 10 10v40a10 10 0 0 0 10 10"></path>
<g class="terminal ">
<path d="M1508 1094h0"></path>
<path d="M1552 1094h0"></path>
<rect x="1508" y="1083" width="44" height="22" rx="10" ry="10"></rect>
<text x="1530" y="1098">3rd</text>
</g>
<path d="M1552 1094a10 10 0 0 0 10 -10v-40a10 10 0 0 1 10 -10"></path>
<path d="M1488 1034a10 10 0 0 1 10 10v70a10 10 0 0 0 10 10"></path>
<g class="terminal ">
<path d="M1508 1124h0"></path>
<path d="M1552 1124h0"></path>
<rect x="1508" y="1113" width="44" height="22" rx="10" ry="10"></rect>
<text x="1530" y="1128">4th</text>
</g>
<path d="M1552 1124a10 10 0 0 0 10 -10v-70a10 10 0 0 1 10 -10"></path>
<path d="M1488 1034a10 10 0 0 1 10 10v100a10 10 0 0 0 10 10"></path>
<g class="terminal ">
<path d="M1508 1154h0"></path>
<path d="M1552 1154h0"></path>
<rect x="1508" y="1143" width="44" height="22" rx="10" ry="10"></rect>
<text x="1530" y="1158">5th</text>
</g>
<path d="M1552 1154a10 10 0 0 0 10 -10v-100a10 10 0 0 1 10 -10"></path>
</g>
<path d="M1572 1034h20"></path>
</g>
<path d="M1592 1034h10"></path>
<g class="terminal ">
<path d="M1602 1034h0"></path>
<path d="M1710 1034h0"></path>
<rect x="1602" y="1023" width="108" height="22" rx="10" ry="10"></rect>
<text x="1656" y="1038">mixing bowl</text>
</g>
</g>
<path d="M1710 1034h20"></path>
</g>
<path d="M1730 1034h10"></path>
<g class="terminal ">
<path d="M1740 1034h0"></path>
<path d="M1768 1034h0"></path>
<rect x="1740" y="1023" width="28" height="22" rx="10" ry="10"></rect>
<text x="1754" y="1038">.</text>
</g>
</g>
<path d="M1922 1034a10 10 0 0 0 10 -10v-966a10 10 0 0 1 10 -10"></path>
<path d="M962 48a10 10 0 0 1 10 10v1125a10 10 0 0 0 10 10"></path>
<g>
<path d="M982 1193h166"></path>
<path d="M1756 1193h166"></path>
<g class="terminal ">
<path d="M1148 1193h0"></path>
<path d="M1224 1193h0"></path>
<rect x="1148" y="1182" width="76" height="22" rx="10" ry="10"></rect>
<text x="1186" y="1197">Liquefy</text>
</g>
<path d="M1224 1193h10"></path>
<g>
<path d="M1234 1193h0"></path>
<path d="M1718 1193h0"></path>
<path d="M1234 1193h20"></path>
<g>
<path d="M1254 1193h0"></path>
<path d="M1698 1193h0"></path>
<g class="terminal ">
<path d="M1254 1193h0"></path>
<path d="M1362 1193h0"></path>
<rect x="1254" y="1182" width="108" height="22" rx="10" ry="10"></rect>
<text x="1308" y="1197">contents of</text>
</g>
<path d="M1362 1193h10"></path>
<g>
<path d="M1372 1193h0"></path>
<path d="M1456 1193h0"></path>
<path d="M1372 1193a10 10 0 0 0 10 -10v0a10 10 0 0 1 10 -10"></path>
<g>
<path d="M1392 1173h44"></path>
</g>
<path d="M1436 1173a10 10 0 0 1 10 10v0a10 10 0 0 0 10 10"></path>
<path d="M1372 1193h20"></path>
<g class="terminal ">
<path d="M1392 1193h0"></path>
<path d="M1436 1193h0"></path>
<rect x="1392" y="1182" width="44" height="22" rx="10" ry="10"></rect>
<text x="1414" y="1197">the</text>
</g>
<path d="M1436 1193h20"></path>
</g>
<g>
<path d="M1456 1193h0"></path>
<path d="M1580 1193h0"></path>
<path d="M1456 1193a10 10 0 0 0 10 -10v0a10 10 0 0 1 10 -10"></path>
<g>
<path d="M1476 1173h84"></path>
</g>
<path d="M1560 1173a10 10 0 0 1 10 10v0a10 10 0 0 0 10 10"></path>
<path d="M1456 1193h20"></path>
<g>
<path d="M1476 1193h0"></path>
<path d="M1560 1193h0"></path>
<path d="M1476 1193h20"></path>
<g class="terminal ">
<path d="M1496 1193h0"></path>
<path d="M1540 1193h0"></path>
<rect x="1496" y="1182" width="44" height="22" rx="10" ry="10"></rect>
<text x="1518" y="1197">1st</text>
</g>
<path d="M1540 1193h20"></path>
<path d="M1476 1193a10 10 0 0 1 10 10v10a10 10 0 0 0 10 10"></path>
<g class="terminal ">
<path d="M1496 1223h0"></path>
<path d="M1540 1223h0"></path>
<rect x="1496" y="1212" width="44" height="22" rx="10" ry="10"></rect>
<text x="1518" y="1227">2nd</text>
</g>
<path d="M1540 1223a10 10 0 0 0 10 -10v-10a10 10 0 0 1 10 -10"></path>
<path d="M1476 1193a10 10 0 0 1 10 10v40a10 10 0 0 0 10 10"></path>
<g class="terminal ">
<path d="M1496 1253h0"></path>
<path d="M1540 1253h0"></path>
<rect x="1496" y="1242" width="44" height="22" rx="10" ry="10"></rect>
<text x="1518" y="1257">3rd</text>
</g>
<path d="M1540 1253a10 10 0 0 0 10 -10v-40a10 10 0 0 1 10 -10"></path>
<path d="M1476 1193a10 10 0 0 1 10 10v70a10 10 0 0 0 10 10"></path>
<g class="terminal ">
<path d="M1496 1283h0"></path>
<path d="M1540 1283h0"></path>
<rect x="1496" y="1272" width="44" height="22" rx="10" ry="10"></rect>
<text x="1518" y="1287">4th</text>
</g>
<path d="M1540 1283a10 10 0 0 0 10 -10v-70a10 10 0 0 1 10 -10"></path>
<path d="M1476 1193a10 10 0 0 1 10 10v100a10 10 0 0 0 10 10"></path>
<g class="terminal ">
<path d="M1496 1313h0"></path>
<path d="M1540 1313h0"></path>
<rect x="1496" y="1302" width="44" height="22" rx="10" ry="10"></rect>
<text x="1518" y="1317">5th</text>
</g>
<path d="M1540 1313a10 10 0 0 0 10 -10v-100a10 10 0 0 1 10 -10"></path>
</g>
<path d="M1560 1193h20"></path>
</g>
<path d="M1580 1193h10"></path>
<g class="terminal ">
<path d="M1590 1193h0"></path>
<path d="M1698 1193h0"></path>
<rect x="1590" y="1182" width="108" height="22" rx="10" ry="10"></rect>
<text x="1644" y="1197">mixing bowl</text>
</g>
</g>
<path d="M1698 1193h20"></path>
<path d="M1234 1193a10 10 0 0 1 10 10v130a10 10 0 0 0 10 10"></path>
<g>
<path d="M1254 1343h174"></path>
<path d="M1524 1343h174"></path>
<path d="M1428 1343h10"></path>
<g class="non-terminal ">
<path d="M1438 1343h0"></path>
<path d="M1514 1343h0"></path>
<rect x="1438" y="1332" width="76" height="22"></rect>
<text x="1476" y="1347">Palabra</text>
</g>
<path d="M1514 1343h10"></path>
<path d="M1438 1343a10 10 0 0 0 -10 10v0a10 10 0 0 0 10 10"></path>
<g>
<path d="M1438 1363h76"></path>
</g>
<path d="M1514 1363a10 10 0 0 0 10 -10v0a10 10 0 0 0 -10 -10"></path>
</g>
<path d="M1698 1343a10 10 0 0 0 10 -10v-130a10 10 0 0 1 10 -10"></path>
</g>
<path d="M1718 1193h10"></path>
<g class="terminal ">
<path d="M1728 1193h0"></path>
<path d="M1756 1193h0"></path>
<rect x="1728" y="1182" width="28" height="22" rx="10" ry="10"></rect>
<text x="1742" y="1197">.</text>
</g>
</g>
<path d="M1922 1193a10 10 0 0 0 10 -10v-1125a10 10 0 0 1 10 -10"></path>
<path d="M962 48a10 10 0 0 1 10 10v1323a10 10 0 0 0 10 10"></path>
<g>
<path d="M982 1391h103"></path>
<path d="M1819 1391h103"></path>
<g class="terminal ">
<path d="M1085 1391h0"></path>
<path d="M1137 1391h0"></path>
<rect x="1085" y="1380" width="52" height="22" rx="10" ry="10"></rect>
<text x="1111" y="1395">Stir</text>
</g>
<path d="M1137 1391h10"></path>
<g>
<path d="M1147 1391h0"></path>
<path d="M1781 1391h0"></path>
<path d="M1147 1391h20"></path>
<g>
<path d="M1167 1391h0"></path>
<path d="M1761 1391h0"></path>
<g>
<path d="M1167 1391h0"></path>
<path d="M1251 1391h0"></path>
<path d="M1167 1391a10 10 0 0 0 10 -10v0a10 10 0 0 1 10 -10"></path>
<g>
<path d="M1187 1371h44"></path>
</g>
<path d="M1231 1371a10 10 0 0 1 10 10v0a10 10 0 0 0 10 10"></path>
<path d="M1167 1391h20"></path>
<g class="terminal ">
<path d="M1187 1391h0"></path>
<path d="M1231 1391h0"></path>
<rect x="1187" y="1380" width="44" height="22" rx="10" ry="10"></rect>
<text x="1209" y="1395">the</text>
</g>
<path d="M1231 1391h20"></path>
</g>
<g>
<path d="M1251 1391h0"></path>
<path d="M1375 1391h0"></path>
<path d="M1251 1391a10 10 0 0 0 10 -10v0a10 10 0 0 1 10 -10"></path>
<g>
<path d="M1271 1371h84"></path>
</g>
<path d="M1355 1371a10 10 0 0 1 10 10v0a10 10 0 0 0 10 10"></path>
<path d="M1251 1391h20"></path>
<g>
<path d="M1271 1391h0"></path>
<path d="M1355 1391h0"></path>
<path d="M1271 1391h20"></path>
<g class="terminal ">
<path d="M1291 1391h0"></path>
<path d="M1335 1391h0"></path>
<rect x="1291" y="1380" width="44" height="22" rx="10" ry="10"></rect>
<text x="1313" y="1395">1st</text>
</g>
<path d="M1335 1391h20"></path>
<path d="M1271 1391a10 10 0 0 1 10 10v10a10 10 0 0 0 10 10"></path>
<g class="terminal ">
<path d="M1291 1421h0"></path>
<path d="M1335 1421h0"></path>
<rect x="1291" y="1410" width="44" height="22" rx="10" ry="10"></rect>
<text x="1313" y="1425">2nd</text>
</g>
<path d="M1335 1421a10 10 0 0 0 10 -10v-10a10 10 0 0 1 10 -10"></path>
<path d="M1271 1391a10 10 0 0 1 10 10v40a10 10 0 0 0 10 10"></path>
<g class="terminal ">
<path d="M1291 1451h0"></path>
<path d="M1335 1451h0"></path>
<rect x="1291" y="1440" width="44" height="22" rx="10" ry="10"></rect>
<text x="1313" y="1455">3rd</text>
</g>
<path d="M1335 1451a10 10 0 0 0 10 -10v-40a10 10 0 0 1 10 -10"></path>
<path d="M1271 1391a10 10 0 0 1 10 10v70a10 10 0 0 0 10 10"></path>
<g class="terminal ">
<path d="M1291 1481h0"></path>
<path d="M1335 1481h0"></path>
<rect x="1291" y="1470" width="44" height="22" rx="10" ry="10"></rect>
<text x="1313" y="1485">4th</text>
</g>
<path d="M1335 1481a10 10 0 0 0 10 -10v-70a10 10 0 0 1 10 -10"></path>
<path d="M1271 1391a10 10 0 0 1 10 10v100a10 10 0 0 0 10 10"></path>
<g class="terminal ">
<path d="M1291 1511h0"></path>
<path d="M1335 1511h0"></path>
<rect x="1291" y="1500" width="44" height="22" rx="10" ry="10"></rect>
<text x="1313" y="1515">5th</text>
</g>
<path d="M1335 1511a10 10 0 0 0 10 -10v-100a10 10 0 0 1 10 -10"></path>
</g>
<path d="M1355 1391h20"></path>
</g>
<path d="M1375 1391h10"></path>
<g class="terminal ">
<path d="M1385 1391h0"></path>
<path d="M1493 1391h0"></path>
<rect x="1385" y="1380" width="108" height="22" rx="10" ry="10"></rect>
<text x="1439" y="1395">mixing bowl</text>
</g>
<path d="M1493 1391h10"></path>
<path d="M1503 1391h10"></path>
<g class="terminal ">
<path d="M1513 1391h0"></path>
<path d="M1557 1391h0"></path>
<rect x="1513" y="1380" width="44" height="22" rx="10" ry="10"></rect>
<text x="1535" y="1395">for</text>
</g>
<path d="M1557 1391h10"></path>
<path d="M1567 1391h10"></path>
<g>
<path d="M1577 1391h0"></path>
<path d="M1665 1391h0"></path>
<path d="M1577 1391h10"></path>
<g class="non-terminal ">
<path d="M1587 1391h0"></path>
<path d="M1655 1391h0"></path>
<rect x="1587" y="1380" width="68" height="22"></rect>
<text x="1621" y="1395">Numero</text>
</g>
<path d="M1655 1391h10"></path>
<path d="M1587 1391a10 10 0 0 0 -10 10v0a10 10 0 0 0 10 10"></path>
<g>
<path d="M1587 1411h68"></path>
</g>
<path d="M1655 1411a10 10 0 0 0 10 -10v0a10 10 0 0 0 -10 -10"></path>
</g>
<path d="M1665 1391h10"></path>
<path d="M1675 1391h10"></path>
<g class="terminal ">
<path d="M1685 1391h0"></path>
<path d="M1761 1391h0"></path>
<rect x="1685" y="1380" width="76" height="22" rx="10" ry="10"></rect>
<text x="1723" y="1395">minutes</text>
</g>
</g>
<path d="M1761 1391h20"></path>
<path d="M1147 1391a10 10 0 0 1 10 10v130a10 10 0 0 0 10 10"></path>
<g>
<path d="M1167 1541h173"></path>
<path d="M1588 1541h173"></path>
<g class="terminal ">
<path d="M1340 1541h0"></path>
<path d="M1384 1541h0"></path>
<rect x="1340" y="1530" width="44" height="22" rx="10" ry="10"></rect>
<text x="1362" y="1545">for</text>
</g>
<path d="M1384 1541h10"></path>
<path d="M1394 1541h10"></path>
<g>
<path d="M1404 1541h0"></path>
<path d="M1492 1541h0"></path>
<path d="M1404 1541h10"></path>
<g class="non-terminal ">
<path d="M1414 1541h0"></path>
<path d="M1482 1541h0"></path>
<rect x="1414" y="1530" width="68" height="22"></rect>
<text x="1448" y="1545">Numero</text>
</g>
<path d="M1482 1541h10"></path>
<path d="M1414 1541a10 10 0 0 0 -10 10v0a10 10 0 0 0 10 10"></path>
<g>
<path d="M1414 1561h68"></path>
</g>
<path d="M1482 1561a10 10 0 0 0 10 -10v0a10 10 0 0 0 -10 -10"></path>
</g>
<path d="M1492 1541h10"></path>
<path d="M1502 1541h10"></path>
<g class="terminal ">
<path d="M1512 1541h0"></path>
<path d="M1588 1541h0"></path>
<rect x="1512" y="1530" width="76" height="22" rx="10" ry="10"></rect>
<text x="1550" y="1545">minutes</text>
</g>
</g>
<path d="M1761 1541a10 10 0 0 0 10 -10v-130a10 10 0 0 1 10 -10"></path>
<path d="M1147 1391a10 10 0 0 1 10 10v178a10 10 0 0 0 10 10"></path>
<g>
<path d="M1167 1589h45"></path>
<path d="M1716 1589h45"></path>
<g>
<path d="M1212 1589h0"></path>
<path d="M1308 1589h0"></path>
<path d="M1212 1589h10"></path>
<g class="non-terminal ">
<path d="M1222 1589h0"></path>
<path d="M1298 1589h0"></path>
<rect x="1222" y="1578" width="76" height="22"></rect>
<text x="1260" y="1593">Palabra</text>
</g>
<path d="M1298 1589h10"></path>
<path d="M1222 1589a10 10 0 0 0 -10 10v0a10 10 0 0 0 10 10"></path>
<g>
<path d="M1222 1609h76"></path>
</g>
<path d="M1298 1609a10 10 0 0 0 10 -10v0a10 10 0 0 0 -10 -10"></path>
</g>
<path d="M1308 1589h10"></path>
<path d="M1318 1589h10"></path>
<g class="terminal ">
<path d="M1328 1589h0"></path>
<path d="M1380 1589h0"></path>
<rect x="1328" y="1578" width="52" height="22" rx="10" ry="10"></rect>
<text x="1354" y="1593">into</text>
</g>
<path d="M1380 1589h10"></path>
<g>
<path d="M1390 1589h0"></path>
<path d="M1474 1589h0"></path>
<path d="M1390 1589a10 10 0 0 0 10 -10v0a10 10 0 0 1 10 -10"></path>
<g>
<path d="M1410 1569h44"></path>
</g>
<path d="M1454 1569a10 10 0 0 1 10 10v0a10 10 0 0 0 10 10"></path>
<path d="M1390 1589h20"></path>
<g class="terminal ">
<path d="M1410 1589h0"></path>
<path d="M1454 1589h0"></path>
<rect x="1410" y="1578" width="44" height="22" rx="10" ry="10"></rect>
<text x="1432" y="1593">the</text>
</g>
<path d="M1454 1589h20"></path>
</g>
<g>
<path d="M1474 1589h0"></path>
<path d="M1598 1589h0"></path>
<path d="M1474 1589a10 10 0 0 0 10 -10v0a10 10 0 0 1 10 -10"></path>
<g>
<path d="M1494 1569h84"></path>
</g>
<path d="M1578 1569a10 10 0 0 1 10 10v0a10 10 0 0 0 10 10"></path>
<path d="M1474 1589h20"></path>
<g>
<path d="M1494 1589h0"></path>
<path d="M1578 1589h0"></path>
<path d="M1494 1589h20"></path>
<g class="terminal ">
<path d="M1514 1589h0"></path>
<path d="M1558 1589h0"></path>
<rect x="1514" y="1578" width="44" height="22" rx="10" ry="10"></rect>
<text x="1536" y="1593">1st</text>
</g>
<path d="M1558 1589h20"></path>
<path d="M1494 1589a10 10 0 0 1 10 10v10a10 10 0 0 0 10 10"></path>
<g class="terminal ">
<path d="M1514 1619h0"></path>
<path d="M1558 1619h0"></path>
<rect x="1514" y="1608" width="44" height="22" rx="10" ry="10"></rect>
<text x="1536" y="1623">2nd</text>
</g>
<path d="M1558 1619a10 10 0 0 0 10 -10v-10a10 10 0 0 1 10 -10"></path>
<path d="M1494 1589a10 10 0 0 1 10 10v40a10 10 0 0 0 10 10"></path>
<g class="terminal ">
<path d="M1514 1649h0"></path>
<path d="M1558 1649h0"></path>
<rect x="1514" y="1638" width="44" height="22" rx="10" ry="10"></rect>
<text x="1536" y="1653">3rd</text>
</g>
<path d="M1558 1649a10 10 0 0 0 10 -10v-40a10 10 0 0 1 10 -10"></path>
<path d="M1494 1589a10 10 0 0 1 10 10v70a10 10 0 0 0 10 10"></path>
<g class="terminal ">
<path d="M1514 1679h0"></path>
<path d="M1558 1679h0"></path>
<rect x="1514" y="1668" width="44" height="22" rx="10" ry="10"></rect>
<text x="1536" y="1683">4th</text>
</g>
<path d="M1558 1679a10 10 0 0 0 10 -10v-70a10 10 0 0 1 10 -10"></path>
<path d="M1494 1589a10 10 0 0 1 10 10v100a10 10 0 0 0 10 10"></path>
<g class="terminal ">
<path d="M1514 1709h0"></path>
<path d="M1558 1709h0"></path>
<rect x="1514" y="1698" width="44" height="22" rx="10" ry="10"></rect>
<text x="1536" y="1713">5th</text>
</g>
<path d="M1558 1709a10 10 0 0 0 10 -10v-100a10 10 0 0 1 10 -10"></path>
</g>
<path d="M1578 1589h20"></path>
</g>
<path d="M1598 1589h10"></path>
<g class="terminal ">
<path d="M1608 1589h0"></path>
<path d="M1716 1589h0"></path>
<rect x="1608" y="1578" width="108" height="22" rx="10" ry="10"></rect>
<text x="1662" y="1593">mixing bowl</text>
</g>
</g>
<path d="M1761 1589a10 10 0 0 0 10 -10v-178a10 10 0 0 1 10 -10"></path>
</g>
<path d="M1781 1391h10"></path>
<g class="terminal ">
<path d="M1791 1391h0"></path>
<path d="M1819 1391h0"></path>
<rect x="1791" y="1380" width="28" height="22" rx="10" ry="10"></rect>
<text x="1805" y="1395">.</text>
</g>
</g>
<path d="M1922 1391a10 10 0 0 0 10 -10v-1323a10 10 0 0 1 10 -10"></path>
<path d="M962 48a10 10 0 0 1 10 10v1688a10 10 0 0 0 10 10"></path>
<g>
<path d="M982 1756h205"></path>
<path d="M1717 1756h205"></path>
<g class="terminal ">
<path d="M1187 1756h0"></path>
<path d="M1231 1756h0"></path>
<rect x="1187" y="1745" width="44" height="22" rx="10" ry="10"></rect>
<text x="1209" y="1760">Mix</text>
</g>
<path d="M1231 1756h10"></path>
<g>
<path d="M1241 1756h0"></path>
<path d="M1607 1756h0"></path>
<path d="M1241 1756a10 10 0 0 0 10 -10v-8a10 10 0 0 1 10 -10"></path>
<g>
<path d="M1261 1728h326"></path>
</g>
<path d="M1587 1728a10 10 0 0 1 10 10v8a10 10 0 0 0 10 10"></path>
<path d="M1241 1756h20"></path>
<g>
<path d="M1261 1756h0"></path>
<path d="M1587 1756h0"></path>
<g>
<path d="M1261 1756h0"></path>
<path d="M1345 1756h0"></path>
<path d="M1261 1756a10 10 0 0 0 10 -10v0a10 10 0 0 1 10 -10"></path>
<g>
<path d="M1281 1736h44"></path>
</g>
<path d="M1325 1736a10 10 0 0 1 10 10v0a10 10 0 0 0 10 10"></path>
<path d="M1261 1756h20"></path>
<g class="terminal ">
<path d="M1281 1756h0"></path>
<path d="M1325 1756h0"></path>
<rect x="1281" y="1745" width="44" height="22" rx="10" ry="10"></rect>
<text x="1303" y="1760">the</text>
</g>
<path d="M1325 1756h20"></path>
</g>
<g>
<path d="M1345 1756h0"></path>
<path d="M1469 1756h0"></path>
<path d="M1345 1756a10 10 0 0 0 10 -10v0a10 10 0 0 1 10 -10"></path>
<g>
<path d="M1365 1736h84"></path>
</g>
<path d="M1449 1736a10 10 0 0 1 10 10v0a10 10 0 0 0 10 10"></path>
<path d="M1345 1756h20"></path>
<g>
<path d="M1365 1756h0"></path>
<path d="M1449 1756h0"></path>
<path d="M1365 1756h20"></path>
<g class="terminal ">
<path d="M1385 1756h0"></path>
<path d="M1429 1756h0"></path>
<rect x="1385" y="1745" width="44" height="22" rx="10" ry="10"></rect>
<text x="1407" y="1760">1st</text>
</g>
<path d="M1429 1756h20"></path>
<path d="M1365 1756a10 10 0 0 1 10 10v10a10 10 0 0 0 10 10"></path>
<g class="terminal ">
<path d="M1385 1786h0"></path>
<path d="M1429 1786h0"></path>
<rect x="1385" y="1775" width="44" height="22" rx="10" ry="10"></rect>
<text x="1407" y="1790">2nd</text>
</g>
<path d="M1429 1786a10 10 0 0 0 10 -10v-10a10 10 0 0 1 10 -10"></path>
<path d="M1365 1756a10 10 0 0 1 10 10v40a10 10 0 0 0 10 10"></path>
<g class="terminal ">
<path d="M1385 1816h0"></path>
<path d="M1429 1816h0"></path>
<rect x="1385" y="1805" width="44" height="22" rx="10" ry="10"></rect>
<text x="1407" y="1820">3rd</text>
</g>
<path d="M1429 1816a10 10 0 0 0 10 -10v-40a10 10 0 0 1 10 -10"></path>
<path d="M1365 1756a10 10 0 0 1 10 10v70a10 10 0 0 0 10 10"></path>
<g class="terminal ">
<path d="M1385 1846h0"></path>
<path d="M1429 1846h0"></path>
<rect x="1385" y="1835" width="44" height="22" rx="10" ry="10"></rect>
<text x="1407" y="1850">4th</text>
</g>
<path d="M1429 1846a10 10 0 0 0 10 -10v-70a10 10 0 0 1 10 -10"></path>
<path d="M1365 1756a10 10 0 0 1 10 10v100a10 10 0 0 0 10 10"></path>
<g class="terminal ">
<path d="M1385 1876h0"></path>
<path d="M1429 1876h0"></path>
<rect x="1385" y="1865" width="44" height="22" rx="10" ry="10"></rect>
<text x="1407" y="1880">5th</text>
</g>
<path d="M1429 1876a10 10 0 0 0 10 -10v-100a10 10 0 0 1 10 -10"></path>
</g>
<path d="M1449 1756h20"></path>
</g>
<path d="M1469 1756h10"></path>
<g class="terminal ">
<path d="M1479 1756h0"></path>
<path d="M1587 1756h0"></path>
<rect x="1479" y="1745" width="108" height="22" rx="10" ry="10"></rect>
<text x="1533" y="1760">mixing bowl</text>
</g>
</g>
<path d="M1587 1756h20"></path>
</g>
<path d="M1607 1756h10"></path>
<g class="terminal ">
<path d="M1617 1756h0"></path>
<path d="M1669 1756h0"></path>
<rect x="1617" y="1745" width="52" height="22" rx="10" ry="10"></rect>
<text x="1643" y="1760">well</text>
</g>
<path d="M1669 1756h10"></path>
<path d="M1679 1756h10"></path>
<g class="terminal ">
<path d="M1689 1756h0"></path>
<path d="M1717 1756h0"></path>
<rect x="1689" y="1745" width="28" height="22" rx="10" ry="10"></rect>
<text x="1703" y="1760">.</text>
</g>
</g>
<path d="M1922 1756a10 10 0 0 0 10 -10v-1688a10 10 0 0 1 10 -10"></path>
<path d="M962 48a10 10 0 0 1 10 10v1847a10 10 0 0 0 10 10"></path>
<g>
<path d="M982 1915h248"></path>
<path d="M1674 1915h248"></path>
<g class="terminal ">
<path d="M1230 1915h0"></path>
<path d="M1290 1915h0"></path>
<rect x="1230" y="1904" width="60" height="22" rx="10" ry="10"></rect>
<text x="1260" y="1919">Clean</text>
</g>
<path d="M1290 1915h10"></path>
<g>
<path d="M1300 1915h0"></path>
<path d="M1384 1915h0"></path>
<path d="M1300 1915a10 10 0 0 0 10 -10v0a10 10 0 0 1 10 -10"></path>
<g>
<path d="M1320 1895h44"></path>
</g>
<path d="M1364 1895a10 10 0 0 1 10 10v0a10 10 0 0 0 10 10"></path>
<path d="M1300 1915h20"></path>
<g class="terminal ">
<path d="M1320 1915h0"></path>
<path d="M1364 1915h0"></path>
<rect x="1320" y="1904" width="44" height="22" rx="10" ry="10"></rect>
<text x="1342" y="1919">the</text>
</g>
<path d="M1364 1915h20"></path>
</g>
<g>
<path d="M1384 1915h0"></path>
<path d="M1508 1915h0"></path>
<path d="M1384 1915a10 10 0 0 0 10 -10v0a10 10 0 0 1 10 -10"></path>
<g>
<path d="M1404 1895h84"></path>
</g>
<path d="M1488 1895a10 10 0 0 1 10 10v0a10 10 0 0 0 10 10"></path>
<path d="M1384 1915h20"></path>
<g>
<path d="M1404 1915h0"></path>
<path d="M1488 1915h0"></path>
<path d="M1404 1915h20"></path>
<g class="terminal ">
<path d="M1424 1915h0"></path>
<path d="M1468 1915h0"></path>
<rect x="1424" y="1904" width="44" height="22" rx="10" ry="10"></rect>
<text x="1446" y="1919">1st</text>
</g>
<path d="M1468 1915h20"></path>
<path d="M1404 1915a10 10 0 0 1 10 10v10a10 10 0 0 0 10 10"></path>
<g class="terminal ">
<path d="M1424 1945h0"></path>
<path d="M1468 1945h0"></path>
<rect x="1424" y="1934" width="44" height="22" rx="10" ry="10"></rect>
<text x="1446" y="1949">2nd</text>
</g>
<path d="M1468 1945a10 10 0 0 0 10 -10v-10a10 10 0 0 1 10 -10"></path>
<path d="M1404 1915a10 10 0 0 1 10 10v40a10 10 0 0 0 10 10"></path>
<g class="terminal ">
<path d="M1424 1975h0"></path>
<path d="M1468 1975h0"></path>
<rect x="1424" y="1964" width="44" height="22" rx="10" ry="10"></rect>
<text x="1446" y="1979">3rd</text>
</g>
<path d="M1468 1975a10 10 0 0 0 10 -10v-40a10 10 0 0 1 10 -10"></path>
<path d="M1404 1915a10 10 0 0 1 10 10v70a10 10 0 0 0 10 10"></path>
<g class="terminal ">
<path d="M1424 2005h0"></path>
<path d="M1468 2005h0"></path>
<rect x="1424" y="1994" width="44" height="22" rx="10" ry="10"></rect>
<text x="1446" y="2009">4th</text>
</g>
<path d="M1468 2005a10 10 0 0 0 10 -10v-70a10 10 0 0 1 10 -10"></path>
<path d="M1404 1915a10 10 0 0 1 10 10v100a10 10 0 0 0 10 10"></path>
<g class="terminal ">
<path d="M1424 2035h0"></path>
<path d="M1468 2035h0"></path>
<rect x="1424" y="2024" width="44" height="22" rx="10" ry="10"></rect>
<text x="1446" y="2039">5th</text>
</g>
<path d="M1468 2035a10 10 0 0 0 10 -10v-100a10 10 0 0 1 10 -10"></path>
</g>
<path d="M1488 1915h20"></path>
</g>
<path d="M1508 1915h10"></path>
<g class="terminal ">
<path d="M1518 1915h0"></path>
<path d="M1626 1915h0"></path>
<rect x="1518" y="1904" width="108" height="22" rx="10" ry="10"></rect>
<text x="1572" y="1919">mixing bowl</text>
</g>
<path d="M1626 1915h10"></path>
<path d="M1636 1915h10"></path>
<g class="terminal ">
<path d="M1646 1915h0"></path>
<path d="M1674 1915h0"></path>
<rect x="1646" y="1904" width="28" height="22" rx="10" ry="10"></rect>
<text x="1660" y="1919">.</text>
</g>
</g>
<path d="M1922 1915a10 10 0 0 0 10 -10v-1847a10 10 0 0 1 10 -10"></path>
<path d="M962 48a10 10 0 0 1 10 10v2006a10 10 0 0 0 10 10"></path>
<g>
<path d="M982 2074h0"></path>
<path d="M1922 2074h0"></path>
<g class="terminal ">
<path d="M982 2074h0"></path>
<path d="M1130 2074h0"></path>
<rect x="982" y="2063" width="148" height="22" rx="10" ry="10"></rect>
<text x="1056" y="2078">Pour contents of</text>
</g>
<path d="M1130 2074h10"></path>
<g>
<path d="M1140 2074h0"></path>
<path d="M1224 2074h0"></path>
<path d="M1140 2074a10 10 0 0 0 10 -10v0a10 10 0 0 1 10 -10"></path>
<g>
<path d="M1160 2054h44"></path>
</g>
<path d="M1204 2054a10 10 0 0 1 10 10v0a10 10 0 0 0 10 10"></path>
<path d="M1140 2074h20"></path>
<g class="terminal ">
<path d="M1160 2074h0"></path>
<path d="M1204 2074h0"></path>
<rect x="1160" y="2063" width="44" height="22" rx="10" ry="10"></rect>
<text x="1182" y="2078">the</text>
</g>
<path d="M1204 2074h20"></path>
</g>
<g>
<path d="M1224 2074h0"></path>
<path d="M1348 2074h0"></path>
<path d="M1224 2074a10 10 0 0 0 10 -10v0a10 10 0 0 1 10 -10"></path>
<g>
<path d="M1244 2054h84"></path>
</g>
<path d="M1328 2054a10 10 0 0 1 10 10v0a10 10 0 0 0 10 10"></path>
<path d="M1224 2074h20"></path>
<g>
<path d="M1244 2074h0"></path>
<path d="M1328 2074h0"></path>
<path d="M1244 2074h20"></path>
<g class="terminal ">
<path d="M1264 2074h0"></path>
<path d="M1308 2074h0"></path>
<rect x="1264" y="2063" width="44" height="22" rx="10" ry="10"></rect>
<text x="1286" y="2078">1st</text>
</g>
<path d="M1308 2074h20"></path>
<path d="M1244 2074a10 10 0 0 1 10 10v10a10 10 0 0 0 10 10"></path>
<g class="terminal ">
<path d="M1264 2104h0"></path>
<path d="M1308 2104h0"></path>
<rect x="1264" y="2093" width="44" height="22" rx="10" ry="10"></rect>
<text x="1286" y="2108">2nd</text>
</g>
<path d="M1308 2104a10 10 0 0 0 10 -10v-10a10 10 0 0 1 10 -10"></path>
<path d="M1244 2074a10 10 0 0 1 10 10v40a10 10 0 0 0 10 10"></path>
<g class="terminal ">
<path d="M1264 2134h0"></path>
<path d="M1308 2134h0"></path>
<rect x="1264" y="2123" width="44" height="22" rx="10" ry="10"></rect>
<text x="1286" y="2138">3rd</text>
</g>
<path d="M1308 2134a10 10 0 0 0 10 -10v-40a10 10 0 0 1 10 -10"></path>
<path d="M1244 2074a10 10 0 0 1 10 10v70a10 10 0 0 0 10 10"></path>
<g class="terminal ">
<path d="M1264 2164h0"></path>
<path d="M1308 2164h0"></path>
<rect x="1264" y="2153" width="44" height="22" rx="10" ry="10"></rect>
<text x="1286" y="2168">4th</text>
</g>
<path d="M1308 2164a10 10 0 0 0 10 -10v-70a10 10 0 0 1 10 -10"></path>
<path d="M1244 2074a10 10 0 0 1 10 10v100a10 10 0 0 0 10 10"></path>
<g class="terminal ">
<path d="M1264 2194h0"></path>
<path d="M1308 2194h0"></path>
<rect x="1264" y="2183" width="44" height="22" rx="10" ry="10"></rect>
<text x="1286" y="2198">5th</text>
</g>
<path d="M1308 2194a10 10 0 0 0 10 -10v-100a10 10 0 0 1 10 -10"></path>
</g>
<path d="M1328 2074h20"></path>
</g>
<path d="M1348 2074h10"></path>
<g class="terminal ">
<path d="M1358 2074h0"></path>
<path d="M1466 2074h0"></path>
<rect x="1358" y="2063" width="108" height="22" rx="10" ry="10"></rect>
<text x="1412" y="2078">mixing bowl</text>
</g>
<path d="M1466 2074h10"></path>
<path d="M1476 2074h10"></path>
<g class="terminal ">
<path d="M1486 2074h0"></path>
<path d="M1538 2074h0"></path>
<rect x="1486" y="2063" width="52" height="22" rx="10" ry="10"></rect>
<text x="1512" y="2078">into</text>
</g>
<path d="M1538 2074h10"></path>
<g>
<path d="M1548 2074h0"></path>
<path d="M1632 2074h0"></path>
<path d="M1548 2074a10 10 0 0 0 10 -10v0a10 10 0 0 1 10 -10"></path>
<g>
<path d="M1568 2054h44"></path>
</g>
<path d="M1612 2054a10 10 0 0 1 10 10v0a10 10 0 0 0 10 10"></path>
<path d="M1548 2074h20"></path>
<g class="terminal ">
<path d="M1568 2074h0"></path>
<path d="M1612 2074h0"></path>
<rect x="1568" y="2063" width="44" height="22" rx="10" ry="10"></rect>
<text x="1590" y="2078">the</text>
</g>
<path d="M1612 2074h20"></path>
</g>
<g>
<path d="M1632 2074h0"></path>
<path d="M1756 2074h0"></path>
<path d="M1632 2074a10 10 0 0 0 10 -10v0a10 10 0 0 1 10 -10"></path>
<g>
<path d="M1652 2054h84"></path>
</g>
<path d="M1736 2054a10 10 0 0 1 10 10v0a10 10 0 0 0 10 10"></path>
<path d="M1632 2074h20"></path>
<g>
<path d="M1652 2074h0"></path>
<path d="M1736 2074h0"></path>
<path d="M1652 2074h20"></path>
<g class="terminal ">
<path d="M1672 2074h0"></path>
<path d="M1716 2074h0"></path>
<rect x="1672" y="2063" width="44" height="22" rx="10" ry="10"></rect>
<text x="1694" y="2078">1st</text>
</g>
<path d="M1716 2074h20"></path>
<path d="M1652 2074a10 10 0 0 1 10 10v10a10 10 0 0 0 10 10"></path>
<g class="terminal ">
<path d="M1672 2104h0"></path>
<path d="M1716 2104h0"></path>
<rect x="1672" y="2093" width="44" height="22" rx="10" ry="10"></rect>
<text x="1694" y="2108">2nd</text>
</g>
<path d="M1716 2104a10 10 0 0 0 10 -10v-10a10 10 0 0 1 10 -10"></path>
<path d="M1652 2074a10 10 0 0 1 10 10v40a10 10 0 0 0 10 10"></path>
<g class="terminal ">
<path d="M1672 2134h0"></path>
<path d="M1716 2134h0"></path>
<rect x="1672" y="2123" width="44" height="22" rx="10" ry="10"></rect>
<text x="1694" y="2138">3rd</text>
</g>
<path d="M1716 2134a10 10 0 0 0 10 -10v-40a10 10 0 0 1 10 -10"></path>
<path d="M1652 2074a10 10 0 0 1 10 10v70a10 10 0 0 0 10 10"></path>
<g class="terminal ">
<path d="M1672 2164h0"></path>
<path d="M1716 2164h0"></path>
<rect x="1672" y="2153" width="44" height="22" rx="10" ry="10"></rect>
<text x="1694" y="2168">4th</text>
</g>
<path d="M1716 2164a10 10 0 0 0 10 -10v-70a10 10 0 0 1 10 -10"></path>
<path d="M1652 2074a10 10 0 0 1 10 10v100a10 10 0 0 0 10 10"></path>
<g class="terminal ">
<path d="M1672 2194h0"></path>
<path d="M1716 2194h0"></path>
<rect x="1672" y="2183" width="44" height="22" rx="10" ry="10"></rect>
<text x="1694" y="2198">5th</text>
</g>
<path d="M1716 2194a10 10 0 0 0 10 -10v-100a10 10 0 0 1 10 -10"></path>
</g>
<path d="M1736 2074h20"></path>
</g>
<path d="M1756 2074h10"></path>
<g class="terminal ">
<path d="M1766 2074h0"></path>
<path d="M1874 2074h0"></path>
<rect x="1766" y="2063" width="108" height="22" rx="10" ry="10"></rect>
<text x="1820" y="2078">baking dish</text>
</g>
<path d="M1874 2074h10"></path>
<path d="M1884 2074h10"></path>
<g class="terminal ">
<path d="M1894 2074h0"></path>
<path d="M1922 2074h0"></path>
<rect x="1894" y="2063" width="28" height="22" rx="10" ry="10"></rect>
<text x="1908" y="2078">.</text>
</g>
</g>
<path d="M1922 2074a10 10 0 0 0 10 -10v-2006a10 10 0 0 1 10 -10"></path>
<path d="M962 48a10 10 0 0 1 10 10v2156a10 10 0 0 0 10 10"></path>
<g>
<path d="M982 2224h338"></path>
<path d="M1584 2224h338"></path>
<g class="terminal ">
<path d="M1320 2224h0"></path>
<path d="M1420 2224h0"></path>
<rect x="1320" y="2213" width="100" height="22" rx="10" ry="10"></rect>
<text x="1370" y="2228">Serve with</text>
</g>
<path d="M1420 2224h10"></path>
<path d="M1430 2224h10"></path>
<g>
<path d="M1440 2224h0"></path>
<path d="M1536 2224h0"></path>
<path d="M1440 2224h10"></path>
<g class="non-terminal ">
<path d="M1450 2224h0"></path>
<path d="M1526 2224h0"></path>
<rect x="1450" y="2213" width="76" height="22"></rect>
<text x="1488" y="2228">Palabra</text>
</g>
<path d="M1526 2224h10"></path>
<path d="M1450 2224a10 10 0 0 0 -10 10v0a10 10 0 0 0 10 10"></path>
<g>
<path d="M1450 2244h76"></path>
</g>
<path d="M1526 2244a10 10 0 0 0 10 -10v0a10 10 0 0 0 -10 -10"></path>
</g>
<path d="M1536 2224h10"></path>
<path d="M1546 2224h10"></path>
<g class="terminal ">
<path d="M1556 2224h0"></path>
<path d="M1584 2224h0"></path>
<rect x="1556" y="2213" width="28" height="22" rx="10" ry="10"></rect>
<text x="1570" y="2228">.</text>
</g>
</g>
<path d="M1922 2224a10 10 0 0 0 10 -10v-2156a10 10 0 0 1 10 -10"></path>
</g>
<path d="M1942 48h10"></path>
<path d="M962 48a10 10 0 0 0 -10 10v2184a10 10 0 0 0 10 10"></path>
<g>
<path d="M962 2252h980"></path>
</g>
<path d="M1942 2252a10 10 0 0 0 10 -10v-2184a10 10 0 0 0 -10 -10"></path>
</g>
</g>
<path d="M1952 48h20"></path>
<path d="M40 48a10 10 0 0 1 10 10v2212a10 10 0 0 0 10 10"></path>
<g>
<path d="M60 2280h324"></path>
<path d="M1628 2280h324"></path>
<g>
<path d="M384 2280h0"></path>
<path d="M480 2280h0"></path>
<path d="M384 2280h10"></path>
<g class="non-terminal ">
<path d="M394 2280h0"></path>
<path d="M470 2280h0"></path>
<rect x="394" y="2269" width="76" height="22"></rect>
<text x="432" y="2284">Palabra</text>
</g>
<path d="M470 2280h10"></path>
<path d="M394 2280a10 10 0 0 0 -10 10v0a10 10 0 0 0 10 10"></path>
<g>
<path d="M394 2300h76"></path>
</g>
<path d="M470 2300a10 10 0 0 0 10 -10v0a10 10 0 0 0 -10 -10"></path>
</g>
<path d="M480 2280h10"></path>
<path d="M490 2280h10"></path>
<g class="terminal ">
<path d="M500 2280h0"></path>
<path d="M528 2280h0"></path>
<rect x="500" y="2269" width="28" height="22" rx="10" ry="10"></rect>
<text x="514" y="2284">.</text>
</g>
<path d="M528 2280h10"></path>
<path d="M538 2280h10"></path>
<g class="terminal ">
<path d="M548 2280h0"></path>
<path d="M664 2280h0"></path>
<rect x="548" y="2269" width="116" height="22" rx="10" ry="10"></rect>
<text x="606" y="2284">Ingredients.</text>
</g>
<path d="M664 2280h10"></path>
<path d="M674 2280h10"></path>
<g>
<path d="M684 2280h0"></path>
<path d="M1236 2280h0"></path>
<g class="non-terminal ">
<path d="M684 2280h0"></path>
<path d="M752 2280h0"></path>
<rect x="684" y="2269" width="68" height="22"></rect>
<text x="718" y="2284">Entero</text>
</g>
<path d="M752 2280h10"></path>
<g>
<path d="M762 2280h0"></path>
<path d="M1130 2280h0"></path>
<path d="M762 2280a10 10 0 0 0 10 -10v0a10 10 0 0 1 10 -10"></path>
<g>
<path d="M782 2260h328"></path>
</g>
<path d="M1110 2260a10 10 0 0 1 10 10v0a10 10 0 0 0 10 10"></path>
<path d="M762 2280h20"></path>
<g>
<path d="M782 2280h0"></path>
<path d="M1110 2280h0"></path>
<path d="M782 2280h20"></path>
<g class="terminal ">
<path d="M802 2280h130"></path>
<path d="M960 2280h130"></path>
<rect x="932" y="2269" width="28" height="22" rx="10" ry="10"></rect>
<text x="946" y="2284">g</text>
</g>
<path d="M1090 2280h20"></path>
<path d="M782 2280a10 10 0 0 1 10 10v10a10 10 0 0 0 10 10"></path>
<g class="terminal ">
<path d="M802 2310h126"></path>
<path d="M964 2310h126"></path>
<rect x="928" y="2299" width="36" height="22" rx="10" ry="10"></rect>
<text x="946" y="2314">kg</text>
</g>
<path d="M1090 2310a10 10 0 0 0 10 -10v-10a10 10 0 0 1 10 -10"></path>
<path d="M782 2280a10 10 0 0 1 10 10v40a10 10 0 0 0 10 10"></path>
<g class="terminal ">
<path d="M802 2340h114"></path>
<path d="M976 2340h114"></path>
<rect x="916" y="2329" width="60" height="22" rx="10" ry="10"></rect>
<text x="946" y="2344">pinch</text>
</g>
<path d="M1090 2340a10 10 0 0 0 10 -10v-40a10 10 0 0 1 10 -10"></path>
<path d="M782 2280a10 10 0 0 1 10 10v79a10 10 0 0 0 10 10"></path>
<g>
<path d="M802 2379h32"></path>
<path d="M1058 2379h32"></path>
<g>
<path d="M834 2379h0"></path>
<path d="M982 2379h0"></path>
<path d="M834 2379a10 10 0 0 0 10 -10v0a10 10 0 0 1 10 -10"></path>
<g>
<path d="M854 2359h108"></path>
</g>
<path d="M962 2359a10 10 0 0 1 10 10v0a10 10 0 0 0 10 10"></path>
<path d="M834 2379h20"></path>
<g>
<path d="M854 2379h0"></path>
<path d="M962 2379h0"></path>
<path d="M854 2379h20"></path>
<g class="terminal ">
<path d="M874 2379h0"></path>
<path d="M942 2379h0"></path>
<rect x="874" y="2368" width="68" height="22" rx="10" ry="10"></rect>
<text x="908" y="2383">heaped</text>
</g>
<path d="M942 2379h20"></path>
<path d="M854 2379a10 10 0 0 1 10 10v10a10 10 0 0 0 10 10"></path>
<g class="terminal ">
<path d="M874 2409h4"></path>
<path d="M938 2409h4"></path>
<rect x="878" y="2398" width="60" height="22" rx="10" ry="10"></rect>
<text x="908" y="2413">level</text>
</g>
<path d="M942 2409a10 10 0 0 0 10 -10v-10a10 10 0 0 1 10 -10"></path>
</g>
<path d="M962 2379h20"></path>
</g>
<g>
<path d="M982 2379h0"></path>
<path d="M1058 2379h0"></path>
<path d="M982 2379h20"></path>
<g class="terminal ">
<path d="M1002 2379h0"></path>
<path d="M1038 2379h0"></path>
<rect x="1002" y="2368" width="36" height="22" rx="10" ry="10"></rect>
<text x="1020" y="2383">ml</text>
</g>
<path d="M1038 2379h20"></path>
<path d="M982 2379a10 10 0 0 1 10 10v10a10 10 0 0 0 10 10"></path>
<g class="terminal ">
<path d="M1002 2409h4"></path>
<path d="M1034 2409h4"></path>
<rect x="1006" y="2398" width="28" height="22" rx="10" ry="10"></rect>
<text x="1020" y="2413">l</text>
</g>
<path d="M1038 2409a10 10 0 0 0 10 -10v-10a10 10 0 0 1 10 -10"></path>
</g>
</g>
<path d="M1090 2379a10 10 0 0 0 10 -10v-79a10 10 0 0 1 10 -10"></path>
<path d="M782 2280a10 10 0 0 1 10 10v148a10 10 0 0 0 10 10"></path>
<g>
<path d="M802 2448h0"></path>
<path d="M1090 2448h0"></path>
<g>
<path d="M802 2448h0"></path>
<path d="M950 2448h0"></path>
<path d="M802 2448a10 10 0 0 0 10 -10v0a10 10 0 0 1 10 -10"></path>
<g>
<path d="M822 2428h108"></path>
</g>
<path d="M930 2428a10 10 0 0 1 10 10v0a10 10 0 0 0 10 10"></path>
<path d="M802 2448h20"></path>
<g>
<path d="M822 2448h0"></path>
<path d="M930 2448h0"></path>
<path d="M822 2448h20"></path>
<g class="terminal ">
<path d="M842 2448h0"></path>
<path d="M910 2448h0"></path>
<rect x="842" y="2437" width="68" height="22" rx="10" ry="10"></rect>
<text x="876" y="2452">heaped</text>
</g>
<path d="M910 2448h20"></path>
<path d="M822 2448a10 10 0 0 1 10 10v10a10 10 0 0 0 10 10"></path>
<g class="terminal ">
<path d="M842 2478h4"></path>
<path d="M906 2478h4"></path>
<rect x="846" y="2467" width="60" height="22" rx="10" ry="10"></rect>
<text x="876" y="2482">level</text>
</g>
<path d="M910 2478a10 10 0 0 0 10 -10v-10a10 10 0 0 1 10 -10"></path>
</g>
<path d="M930 2448h20"></path>
</g>
<g>
<path d="M950 2448h0"></path>
<path d="M1090 2448h0"></path>
<path d="M950 2448h20"></path>
<g class="terminal ">
<path d="M970 2448h0"></path>
<path d="M1070 2448h0"></path>
<rect x="970" y="2437" width="100" height="22" rx="10" ry="10"></rect>
<text x="1020" y="2452">tablespoon</text>
</g>
<path d="M1070 2448h20"></path>
<path d="M950 2448a10 10 0 0 1 10 10v10a10 10 0 0 0 10 10"></path>
<g class="terminal ">
<path d="M970 2478h8"></path>
<path d="M1062 2478h8"></path>
<rect x="978" y="2467" width="84" height="22" rx="10" ry="10"></rect>
<text x="1020" y="2482">teaspoon</text>
</g>
<path d="M1070 2478a10 10 0 0 0 10 -10v-10a10 10 0 0 1 10 -10"></path>
<path d="M950 2448a10 10 0 0 1 10 10v40a10 10 0 0 0 10 10"></path>
<g class="terminal ">
<path d="M970 2508h28"></path>
<path d="M1042 2508h28"></path>
<rect x="998" y="2497" width="44" height="22" rx="10" ry="10"></rect>
<text x="1020" y="2512">cup</text>
</g>
<path d="M1070 2508a10 10 0 0 0 10 -10v-40a10 10 0 0 1 10 -10"></path>
</g>
</g>
<path d="M1090 2448a10 10 0 0 0 10 -10v-148a10 10 0 0 1 10 -10"></path>
</g>
<path d="M1110 2280h20"></path>
</g>
<path d="M1130 2280h10"></path>
<g>
<path d="M1140 2280h0"></path>
<path d="M1236 2280h0"></path>
<path d="M1140 2280h10"></path>
<g class="non-terminal ">
<path d="M1150 2280h0"></path>
<path d="M1226 2280h0"></path>
<rect x="1150" y="2269" width="76" height="22"></rect>
<text x="1188" y="2284">Palabra</text>
</g>
<path d="M1226 2280h10"></path>
<path d="M1150 2280a10 10 0 0 0 -10 10v0a10 10 0 0 0 10 10"></path>
<g>
<path d="M1150 2300h76"></path>
</g>
<path d="M1226 2300a10 10 0 0 0 10 -10v0a10 10 0 0 0 -10 -10"></path>
</g>
</g>
<path d="M1236 2280h10"></path>
<path d="M1246 2280h10"></path>
<g>
<path d="M1256 2280h0"></path>
<path d="M1384 2280h0"></path>
<path d="M1256 2280h10"></path>
<g class="non-terminal ">
<path d="M1266 2280h0"></path>
<path d="M1374 2280h0"></path>
<rect x="1266" y="2269" width="108" height="22"></rect>
<text x="1320" y="2284">Instruccion</text>
</g>
<path d="M1374 2280h10"></path>
<path d="M1266 2280a10 10 0 0 0 -10 10v0a10 10 0 0 0 10 10"></path>
<g>
<path d="M1266 2300h108"></path>
</g>
<path d="M1374 2300a10 10 0 0 0 10 -10v0a10 10 0 0 0 -10 -10"></path>
</g>
<path d="M1384 2280h10"></path>
<path d="M1394 2280h10"></path>
<g class="terminal ">
<path d="M1404 2280h0"></path>
<path d="M1472 2280h0"></path>
<rect x="1404" y="2269" width="68" height="22" rx="10" ry="10"></rect>
<text x="1438" y="2284">Serves</text>
</g>
<path d="M1472 2280h10"></path>
<path d="M1482 2280h10"></path>
<g>
<path d="M1492 2280h0"></path>
<path d="M1580 2280h0"></path>
<path d="M1492 2280h10"></path>
<g class="non-terminal ">
<path d="M1502 2280h0"></path>
<path d="M1570 2280h0"></path>
<rect x="1502" y="2269" width="68" height="22"></rect>
<text x="1536" y="2284">Numero</text>
</g>
<path d="M1570 2280h10"></path>
<path d="M1502 2280a10 10 0 0 0 -10 10v0a10 10 0 0 0 10 10"></path>
<g>
<path d="M1502 2300h68"></path>
</g>
<path d="M1570 2300a10 10 0 0 0 10 -10v0a10 10 0 0 0 -10 -10"></path>
</g>
<path d="M1580 2280h10"></path>
<path d="M1590 2280h10"></path>
<g class="terminal ">
<path d="M1600 2280h0"></path>
<path d="M1628 2280h0"></path>
<rect x="1600" y="2269" width="28" height="22" rx="10" ry="10"></rect>
<text x="1614" y="2284">.</text>
</g>
</g>
<path d="M1952 2280a10 10 0 0 0 10 -10v-2212a10 10 0 0 1 10 -10"></path>
</g>
<path d="M 1972 48 h 20 m -10 -10 v 20 m 10 -20 v 20"></path>
</g>
<style>
	svg {
		background-color: hsl(30,20%,95%);
	}
	path {
		stroke-width: 3;
		stroke: black;
		fill: rgba(0,0,0,0);
	}
	text {
		font: bold 14px monospace;
		text-anchor: middle;
		white-space: pre;
	}
	text.diagram-text {
		font-size: 12px;
	}
	text.diagram-arrow {
		font-size: 16px;
	}
	text.label {
		text-anchor: start;
	}
	text.comment {
		font: italic 12px monospace;
	}
	g.non-terminal text {
		/&#42;font-style: italic;&#42;/
	}
	rect {
		stroke-width: 3;
		stroke: black;
		fill: hsl(120,100%,90%);
	}
	rect.group-box {
		stroke: gray;
		stroke-dasharray: 10 5;
		fill: none;
	}
	path.diagram-text {
		stroke-width: 3;
		stroke: black;
		fill: white;
		cursor: help;
	}
	g.diagram-text:hover path.diagram-text {
		fill: #eee;
	}</style>
</svg>
