<svg class="railroad-diagram" height="230" viewBox="0 0 700.0 230" width="700.0" xmlns="http://www.w3.org/2000/svg" xmlns:xlink="http://www.w3.org/1999/xlink">
<g transform="translate(.5 .5)">
<g>
<path d="M20 21v20m10 -20v20m-10 -10h20" /></g><g>
<path d="M40 31h0.0" /><path d="M660.0 31h0.0" /><path d="M40.0 31h20" /><g>
<path d="M60.0 31h47.75" /><path d="M592.25 31h47.75" /><g>
<path d="M107.75 31h0.0" /><path d="M201.75 31h0.0" /><path d="M107.75 31h20" /><g class="terminal ">
<path d="M127.75 31h4.25" /><path d="M177.5 31h4.25" /><rect height="22" rx="10" ry="10" width="45.5" x="132" y="20"></rect><text x="154.75" y="35">Put</text></g><path d="M181.75 31h20" /><path d="M107.75 31a10 10 0 0 1 10 10v10a10 10 0 0 0 10 10" /><g class="terminal ">
<path d="M127.75 61h0.0" /><path d="M181.75 61h0.0" /><rect height="22" rx="10" ry="10" width="54" x="127.75" y="50"></rect><text x="154.75" y="65">Fold</text></g><path d="M181.75 61a10 10 0 0 0 10 -10v-10a10 10 0 0 1 10 -10" /></g><path d="M201.75 31h10" /><g class="non-terminal ">
<path d="M211.75 31h0.0" /><path d="M342.25 31h0.0" /><rect height="22" width="130.5" x="211.75" y="20"></rect><text x="277" y="35">Identificador</text></g><path d="M342.25 31h10" /><path d="M352.25 31h10" /><g class="terminal ">
<path d="M362.25 31h0.0" /><path d="M416.25 31h0.0" /><rect height="22" rx="10" ry="10" width="54" x="362.25" y="20"></rect><text x="389.25" y="35">into</text></g><path d="M416.25 31h10" /><path d="M426.25 31h10" /><g class="non-terminal ">
<path d="M436.25 31h0.0" /><path d="M592.25 31h0.0" /><rect height="22" width="156" x="436.25" y="20"></rect><text x="514.25" y="35">RecipienteMezcla</text></g></g><path d="M640.0 31h20" /><path d="M40.0 31a10 10 0 0 1 10 10v49a10 10 0 0 0 10 10" /><g>
<path d="M60.0 100h39.25" /><path d="M600.75 100h39.25" /><g class="terminal ">
<path d="M99.25 100h0.0" /><path d="M170.25 100h0.0" /><rect height="22" rx="10" ry="10" width="71" x="99.25" y="89"></rect><text x="134.75" y="104">Remove</text></g><path d="M170.25 100h10" /><path d="M180.25 100h10" /><g class="non-terminal ">
<path d="M190.25 100h0.0" /><path d="M320.75 100h0.0" /><rect height="22" width="130.5" x="190.25" y="89"></rect><text x="255.5" y="104">Identificador</text></g><path d="M320.75 100h10" /><g>
<path d="M330.75 100h0.0" /><path d="M600.75 100h0.0" /><path d="M330.75 100a10 10 0 0 0 10 -10v0a10 10 0 0 1 10 -10" /><g>
<path d="M350.75 80h230.0" /></g><path d="M580.75 80a10 10 0 0 1 10 10v0a10 10 0 0 0 10 10" /><path d="M330.75 100h20" /><g>
<path d="M350.75 100h0.0" /><path d="M580.75 100h0.0" /><g class="terminal ">
<path d="M350.75 100h0.0" /><path d="M404.75 100h0.0" /><rect height="22" rx="10" ry="10" width="54" x="350.75" y="89"></rect><text x="377.75" y="104">from</text></g><path d="M404.75 100h10" /><path d="M414.75 100h10" /><g class="non-terminal ">
<path d="M424.75 100h0.0" /><path d="M580.75 100h0.0" /><rect height="22" width="156" x="424.75" y="89"></rect><text x="502.75" y="104">RecipienteMezcla</text></g></g><path d="M580.75 100h20" /></g></g><path d="M640.0 100a10 10 0 0 0 10 -10v-49a10 10 0 0 1 10 -10" /><path d="M40.0 31a10 10 0 0 1 10 10v88a10 10 0 0 0 10 10" /><g>
<path d="M60.0 139h0.0" /><path d="M640.0 139h0.0" /><g>
<path d="M60.0 139h0.0" /><path d="M640.0 139h0.0" /><path d="M60.0 139h20" /><g>
<path d="M80.0 139h0.0" /><path d="M620.0 139h0.0" /><g>
<path d="M80.0 139h0.0" /><path d="M199.5 139h0.0" /><path d="M80.0 139h20" /><g class="terminal ">
<path d="M100.0 139h17.0" /><path d="M162.5 139h17.0" /><rect height="22" rx="10" ry="10" width="45.5" x="117" y="128"></rect><text x="139.75" y="143">Add</text></g><path d="M179.5 139h20" /><path d="M80.0 139a10 10 0 0 1 10 10v10a10 10 0 0 0 10 10" /><g class="terminal ">
<path d="M100.0 169h0.0" /><path d="M179.5 169h0.0" /><rect height="22" rx="10" ry="10" width="79.5" x="100" y="158"></rect><text x="139.75" y="173">Combine</text></g><path d="M179.5 169a10 10 0 0 0 10 -10v-10a10 10 0 0 1 10 -10" /><path d="M80.0 139a10 10 0 0 1 10 10v40a10 10 0 0 0 10 10" /><g class="terminal ">
<path d="M100.0 199h4.25" /><path d="M175.25 199h4.25" /><rect height="22" rx="10" ry="10" width="71" x="104.25" y="188"></rect><text x="139.75" y="203">Divide</text></g><path d="M179.5 199a10 10 0 0 0 10 -10v-40a10 10 0 0 1 10 -10" /></g><path d="M199.5 139h10" /><g class="non-terminal ">
<path d="M209.5 139h0.0" /><path d="M340.0 139h0.0" /><rect height="22" width="130.5" x="209.5" y="128"></rect><text x="274.75" y="143">Identificador</text></g><path d="M340.0 139h10" /><g>
<path d="M350.0 139h0.0" /><path d="M620.0 139h0.0" /><path d="M350.0 139a10 10 0 0 0 10 -10v0a10 10 0 0 1 10 -10" /><g>
<path d="M370.0 119h230.0" /></g><path d="M600.0 119a10 10 0 0 1 10 10v0a10 10 0 0 0 10 10" /><path d="M350.0 139h20" /><g>
<path d="M370.0 139h0.0" /><path d="M600.0 139h0.0" /><g class="terminal ">
<path d="M370.0 139h0.0" /><path d="M424.0 139h0.0" /><rect height="22" rx="10" ry="10" width="54" x="370" y="128"></rect><text x="397" y="143">into</text></g><path d="M424.0 139h10" /><path d="M434.0 139h10" /><g class="non-terminal ">
<path d="M444.0 139h0.0" /><path d="M600.0 139h0.0" /><rect height="22" width="156" x="444" y="128"></rect><text x="522" y="143">RecipienteMezcla</text></g></g><path d="M600.0 139h20" /></g></g><path d="M620.0 139h20" /></g></g><path d="M640.0 139a10 10 0 0 0 10 -10v-88a10 10 0 0 1 10 -10" /></g><path d="M 660.0 31 h 20 m -10 -10 v 20 m 10 -20 v 20"></path></g><style>/* <![CDATA[ */
	svg.railroad-diagram {
		background-color:hsl(30,20%,95%);
	}
	svg.railroad-diagram path {
		stroke-width:3;
		stroke:black;
		fill:rgba(0,0,0,0);
	}
	svg.railroad-diagram text {
		font:bold 14px monospace;
		text-anchor:middle;
	}
	svg.railroad-diagram text.label{
		text-anchor:start;
	}
	svg.railroad-diagram text.comment{
		font:italic 12px monospace;
	}
	svg.railroad-diagram rect{
		stroke-width:3;
		stroke:black;
		fill:hsl(120,100%,90%);
	}
	svg.railroad-diagram rect.group-box {
		stroke: gray;
		stroke-dasharray: 10 5;
		fill: none;
	}

/* ]]> */
</style></svg>