<svg class="railroad-diagram" height="332" viewBox="0 0 174.0 332" width="174.0" xmlns="http://www.w3.org/2000/svg" xmlns:xlink="http://www.w3.org/1999/xlink">
<g transform="translate(.5 .5)">
<g>
<path d="M20 21v20m10 -20v20m-10 -10h20" /></g><g>
<path d="M40 31h0.0" /><path d="M134.0 31h0.0" /><path d="M40.0 31h20" /><g class="terminal ">
<path d="M60.0 31h4.25" /><path d="M109.75 31h4.25" /><rect height="22" rx="10" ry="10" width="45.5" x="64.25" y="20"></rect><text x="87" y="35">1st</text></g><path d="M114.0 31h20" /><path d="M40.0 31a10 10 0 0 1 10 10v10a10 10 0 0 0 10 10" /><g class="terminal ">
<path d="M60.0 61h4.25" /><path d="M109.75 61h4.25" /><rect height="22" rx="10" ry="10" width="45.5" x="64.25" y="50"></rect><text x="87" y="65">2nd</text></g><path d="M114.0 61a10 10 0 0 0 10 -10v-10a10 10 0 0 1 10 -10" /><path d="M40.0 31a10 10 0 0 1 10 10v40a10 10 0 0 0 10 10" /><g class="terminal ">
<path d="M60.0 91h4.25" /><path d="M109.75 91h4.25" /><rect height="22" rx="10" ry="10" width="45.5" x="64.25" y="80"></rect><text x="87" y="95">3rd</text></g><path d="M114.0 91a10 10 0 0 0 10 -10v-40a10 10 0 0 1 10 -10" /><path d="M40.0 31a10 10 0 0 1 10 10v70a10 10 0 0 0 10 10" /><g class="terminal ">
<path d="M60.0 121h4.25" /><path d="M109.75 121h4.25" /><rect height="22" rx="10" ry="10" width="45.5" x="64.25" y="110"></rect><text x="87" y="125">4th</text></g><path d="M114.0 121a10 10 0 0 0 10 -10v-70a10 10 0 0 1 10 -10" /><path d="M40.0 31a10 10 0 0 1 10 10v100a10 10 0 0 0 10 10" /><g class="terminal ">
<path d="M60.0 151h4.25" /><path d="M109.75 151h4.25" /><rect height="22" rx="10" ry="10" width="45.5" x="64.25" y="140"></rect><text x="87" y="155">5th</text></g><path d="M114.0 151a10 10 0 0 0 10 -10v-100a10 10 0 0 1 10 -10" /><path d="M40.0 31a10 10 0 0 1 10 10v130a10 10 0 0 0 10 10" /><g class="terminal ">
<path d="M60.0 181h4.25" /><path d="M109.75 181h4.25" /><rect height="22" rx="10" ry="10" width="45.5" x="64.25" y="170"></rect><text x="87" y="185">6th</text></g><path d="M114.0 181a10 10 0 0 0 10 -10v-130a10 10 0 0 1 10 -10" /><path d="M40.0 31a10 10 0 0 1 10 10v160a10 10 0 0 0 10 10" /><g class="terminal ">
<path d="M60.0 211h4.25" /><path d="M109.75 211h4.25" /><rect height="22" rx="10" ry="10" width="45.5" x="64.25" y="200"></rect><text x="87" y="215">7th</text></g><path d="M114.0 211a10 10 0 0 0 10 -10v-160a10 10 0 0 1 10 -10" /><path d="M40.0 31a10 10 0 0 1 10 10v190a10 10 0 0 0 10 10" /><g class="terminal ">
<path d="M60.0 241h4.25" /><path d="M109.75 241h4.25" /><rect height="22" rx="10" ry="10" width="45.5" x="64.25" y="230"></rect><text x="87" y="245">8th</text></g><path d="M114.0 241a10 10 0 0 0 10 -10v-190a10 10 0 0 1 10 -10" /><path d="M40.0 31a10 10 0 0 1 10 10v220a10 10 0 0 0 10 10" /><g class="terminal ">
<path d="M60.0 271h4.25" /><path d="M109.75 271h4.25" /><rect height="22" rx="10" ry="10" width="45.5" x="64.25" y="260"></rect><text x="87" y="275">9th</text></g><path d="M114.0 271a10 10 0 0 0 10 -10v-220a10 10 0 0 1 10 -10" /><path d="M40.0 31a10 10 0 0 1 10 10v250a10 10 0 0 0 10 10" /><g class="terminal ">
<path d="M60.0 301h0.0" /><path d="M114.0 301h0.0" /><rect height="22" rx="10" ry="10" width="54" x="60" y="290"></rect><text x="87" y="305">10th</text></g><path d="M114.0 301a10 10 0 0 0 10 -10v-250a10 10 0 0 1 10 -10" /></g><path d="M 134.0 31 h 20 m -10 -10 v 20 m 10 -20 v 20"></path></g><style>/* <![CDATA[ */
	svg.railroad-diagram {
		background-color:hsl(30,20%,95%);
	}
	svg.railroad-diagram path {
		stroke-width:3;
		stroke:black;
		fill:rgba(0,0,0,0);
	}
	svg.railroad-diagram text {
		font:bold 14px monospace;
		text-anchor:middle;
	}
	svg.railroad-diagram text.label{
		text-anchor:start;
	}
	svg.railroad-diagram text.comment{
		font:italic 12px monospace;
	}
	svg.railroad-diagram rect{
		stroke-width:3;
		stroke:black;
		fill:hsl(120,100%,90%);
	}
	svg.railroad-diagram rect.group-box {
		stroke: gray;
		stroke-dasharray: 10 5;
		fill: none;
	}

/* ]]> */
</style></svg>