<svg class="railroad-diagram" height="71" viewBox="0 0 428.5 71" width="428.5" xmlns="http://www.w3.org/2000/svg" xmlns:xlink="http://www.w3.org/1999/xlink">
<g transform="translate(.5 .5)">
<g>
<path d="M20 30v20m10 -20v20m-10 -10h20" /></g><path d="M40 40h10" /><g>
<path d="M50 40h0.0" /><path d="M378.5 40h0.0" /><g>
<path d="M50.0 40h0.0" /><path d="M135.5 40h0.0" /><path d="M50.0 40a10 10 0 0 0 10 -10v0a10 10 0 0 1 10 -10" /><g>
<path d="M70.0 20h45.5" /></g><path d="M115.5 20a10 10 0 0 1 10 10v0a10 10 0 0 0 10 10" /><path d="M50.0 40h20" /><g class="terminal ">
<path d="M70.0 40h0.0" /><path d="M115.5 40h0.0" /><rect height="22" rx="10" ry="10" width="45.5" x="70" y="29"></rect><text x="92.75" y="44">the</text></g><path d="M115.5 40h20" /></g><g>
<path d="M135.5 40h0.0" /><path d="M255.0 40h0.0" /><path d="M135.5 40a10 10 0 0 0 10 -10v0a10 10 0 0 1 10 -10" /><g>
<path d="M155.5 20h79.5" /></g><path d="M235.0 20a10 10 0 0 1 10 10v0a10 10 0 0 0 10 10" /><path d="M135.5 40h20" /><g class="non-terminal ">
<path d="M155.5 40h0.0" /><path d="M235.0 40h0.0" /><rect height="22" width="79.5" x="155.5" y="29"></rect><text x="195.25" y="44">Ordinal</text></g><path d="M235.0 40h20" /></g><path d="M255.0 40h10" /><g class="terminal ">
<path d="M265.0 40h0.0" /><path d="M378.5 40h0.0" /><rect height="22" rx="10" ry="10" width="113.5" x="265" y="29"></rect><text x="321.75" y="44">mixing bowl</text></g></g><path d="M378.5 40h10" /><path d="M 388.5 40 h 20 m -10 -10 v 20 m 10 -20 v 20"></path></g><style>/* <![CDATA[ */
	svg.railroad-diagram {
		background-color:hsl(30,20%,95%);
	}
	svg.railroad-diagram path {
		stroke-width:3;
		stroke:black;
		fill:rgba(0,0,0,0);
	}
	svg.railroad-diagram text {
		font:bold 14px monospace;
		text-anchor:middle;
	}
	svg.railroad-diagram text.label{
		text-anchor:start;
	}
	svg.railroad-diagram text.comment{
		font:italic 12px monospace;
	}
	svg.railroad-diagram rect{
		stroke-width:3;
		stroke:black;
		fill:hsl(120,100%,90%);
	}
	svg.railroad-diagram rect.group-box {
		stroke: gray;
		stroke-dasharray: 10 5;
		fill: none;
	}

/* ]]> */
</style></svg>