<svg class="railroad-diagram" height="131" viewBox="0 0 413.0 131" width="413.0" xmlns="http://www.w3.org/2000/svg" xmlns:xlink="http://www.w3.org/1999/xlink">
<g transform="translate(.5 .5)">
<g>
<path d="M20 21v20m10 -20v20m-10 -10h20" /></g><path d="M40 31h10" /><g>
<path d="M50 31h0.0" /><path d="M363.0 31h0.0" /><g>
<path d="M50.0 31h0.0" /><path d="M363.0 31h0.0" /><path d="M50.0 31h20" /><g class="non-terminal ">
<path d="M70.0 31h109.5" /><path d="M233.5 31h109.5" /><rect height="22" width="54" x="179.5" y="20"></rect><text x="206.5" y="35">Seco</text></g><path d="M343.0 31h20" /><path d="M50.0 31a10 10 0 0 1 10 10v19a10 10 0 0 0 10 10" /><g>
<path d="M70.0 70h0.0" /><path d="M343.0 70h0.0" /><g>
<path d="M70.0 70h0.0" /><path d="M223.5 70h0.0" /><path d="M70.0 70a10 10 0 0 0 10 -10v0a10 10 0 0 1 10 -10" /><g>
<path d="M90.0 50h113.5" /></g><path d="M203.5 50a10 10 0 0 1 10 10v0a10 10 0 0 0 10 10" /><path d="M70.0 70h20" /><g class="non-terminal ">
<path d="M90.0 70h0.0" /><path d="M203.5 70h0.0" /><rect height="22" width="113.5" x="90" y="59"></rect><text x="146.75" y="74">Modificador</text></g><path d="M203.5 70h20" /></g><g>
<path d="M223.5 70h0.0" /><path d="M343.0 70h0.0" /><path d="M223.5 70h20" /><g class="non-terminal ">
<path d="M243.5 70h0.0" /><path d="M323.0 70h0.0" /><rect height="22" width="79.5" x="243.5" y="59"></rect><text x="283.25" y="74">Liquido</text></g><path d="M323.0 70h20" /><path d="M223.5 70a10 10 0 0 1 10 10v10a10 10 0 0 0 10 10" /><g class="non-terminal ">
<path d="M243.5 100h0.0" /><path d="M323.0 100h0.0" /><rect height="22" width="79.5" x="243.5" y="89"></rect><text x="283.25" y="104">Volumen</text></g><path d="M323.0 100a10 10 0 0 0 10 -10v-10a10 10 0 0 1 10 -10" /></g></g><path d="M343.0 70a10 10 0 0 0 10 -10v-19a10 10 0 0 1 10 -10" /></g></g><path d="M363.0 31h10" /><path d="M 373.0 31 h 20 m -10 -10 v 20 m 10 -20 v 20"></path></g><style>/* <![CDATA[ */
	svg.railroad-diagram {
		background-color:hsl(30,20%,95%);
	}
	svg.railroad-diagram path {
		stroke-width:3;
		stroke:black;
		fill:rgba(0,0,0,0);
	}
	svg.railroad-diagram text {
		font:bold 14px monospace;
		text-anchor:middle;
	}
	svg.railroad-diagram text.label{
		text-anchor:start;
	}
	svg.railroad-diagram text.comment{
		font:italic 12px monospace;
	}
	svg.railroad-diagram rect{
		stroke-width:3;
		stroke:black;
		fill:hsl(120,100%,90%);
	}
	svg.railroad-diagram rect.group-box {
		stroke: gray;
		stroke-dasharray: 10 5;
		fill: none;
	}

/* ]]> */
</style></svg>